<svg width="153" height="50" viewBox="0 0 153 50" fill="none" xmlns="http://www.w3.org/2000/svg">
<path d="M148.459 30.511L152.731 33.3333C151.357 35.3535 148.04 38.8295 142.334 38.8295C135.253 38.8295 129.965 33.363 129.965 26.4409C129.965 19.0434 135.313 14.0523 141.736 14.0523C148.22 14.0523 151.387 19.1622 152.432 21.9548L153 23.3511L136.299 30.2139C137.583 32.7094 139.555 33.9572 142.364 33.9572C145.112 33.9572 147.084 32.5906 148.459 30.511ZM135.373 26.0547L146.517 21.4498C145.889 19.9049 144.067 18.8057 141.886 18.8057C139.107 18.8057 135.253 21.2418 135.373 26.0547Z" fill="#FF302F"/>
<path d="M127.276 1.39632H121.898V37.7005H127.276V1.39632Z" fill="#20B15A"/>
<path d="M113.413 15.003H118.612V37.0766C118.612 46.227 113.174 50 106.751 50C100.685 50 97.0704 45.9596 95.696 42.6619L100.446 40.7011C101.313 42.7213 103.374 45.1277 106.751 45.1277C110.874 45.1277 113.413 42.5728 113.413 37.8194V36.0368H113.234C112.009 37.5223 109.649 38.8592 106.661 38.8592C100.417 38.8592 94.7101 33.4522 94.7101 26.5003C94.7101 19.489 100.417 14.0523 106.661 14.0523C109.619 14.0523 112.009 15.3595 113.234 16.8152H113.413V15.003ZM113.801 26.4706C113.801 22.0737 110.874 18.8948 107.139 18.8948C103.374 18.8948 100.178 22.0737 100.178 26.4706C100.178 30.8081 103.345 33.9275 107.139 33.9275C110.874 33.9572 113.801 30.8081 113.801 26.4706Z" fill="#3686F7"/>
<path d="M65.1915 26.3815C65.1915 33.5413 59.6045 38.77 52.703 38.77C45.8313 38.77 40.2443 33.5116 40.2443 26.3815C40.2443 19.1919 45.8313 13.9632 52.703 13.9632C59.5747 13.9632 65.1915 19.1919 65.1915 26.3815ZM59.7241 26.3815C59.7241 21.9251 56.4675 18.8651 52.703 18.8651C48.9385 18.8651 45.6819 21.9251 45.6819 26.3815C45.6819 30.8081 48.9385 33.8978 52.703 33.8978C56.4675 33.8978 59.7241 30.8081 59.7241 26.3815Z" fill="#FF302F"/>
<path d="M92.4394 26.4409C92.4394 33.6007 86.8524 38.8295 79.9509 38.8295C73.0493 38.8295 67.4623 33.571 67.4623 26.4409C67.4623 19.2513 73.0493 14.0523 79.9509 14.0523C86.8524 14.0523 92.4394 19.2216 92.4394 26.4409ZM86.9719 26.4409C86.9719 21.9845 83.7154 18.9245 79.9509 18.9245C76.1864 18.9245 72.9298 21.9845 72.9298 26.4409C72.9298 30.8675 76.1864 33.9572 79.9509 33.9572C83.7154 33.9572 86.9719 30.8378 86.9719 26.4409Z" fill="#FFBA40"/>
<path d="M19.7487 33.3927C11.9209 33.3927 5.79613 27.1242 5.79613 19.3405C5.79613 11.5567 11.9209 5.28818 19.7487 5.28818C23.9613 5.28818 27.0387 6.95187 29.3392 9.0612L33.1037 5.31789C29.9367 2.28758 25.6942 0 19.7786 0C9.02285 0 0 8.67499 0 19.3405C0 30.0059 9.02285 38.6809 19.7487 38.6809C25.5448 38.6809 29.9069 36.7796 33.3128 33.2442C36.8084 29.7683 37.9139 24.8663 37.9139 20.8853C37.9139 19.6376 37.7645 18.3601 37.5852 17.4094H19.7487V22.5787H32.4763C32.0879 25.817 31.0721 28.0154 29.5483 29.5306C27.696 31.3725 24.8278 33.3927 19.7487 33.3927Z" fill="#3686F7"/>
</svg>
