<?xml version="1.0" encoding="utf-8"?>
<!-- Generator: Adobe Illustrator 21.0.0, SVG Export Plug-In . SVG Version: 6.00 Build 0)  -->
<svg version="1.1"
	 id="svg3506" inkscape:version="0.48.2 r9819" sodipodi:docname="New document 4" xmlns:cc="http://creativecommons.org/ns#" xmlns:dc="http://purl.org/dc/elements/1.1/" xmlns:inkscape="http://www.inkscape.org/namespaces/inkscape" xmlns:rdf="http://www.w3.org/1999/02/22-rdf-syntax-ns#" xmlns:sodipodi="http://sodipodi.sourceforge.net/DTD/sodipodi-0.dtd" xmlns:svg="http://www.w3.org/2000/svg"
	 xmlns="http://www.w3.org/2000/svg" xmlns:xlink="http://www.w3.org/1999/xlink" x="0px" y="0px" viewBox="0 0 400 198.3"
	 style="enable-background:new 0 0 400 198.3;" xml:space="preserve">
<style type="text/css">
	.st0{fill:#2A3E92;}
	.st1{fill:#FFFFFF;}
</style>
<sodipodi:namedview  bordercolor="#666666" borderopacity="1.0" fit-margin-bottom="0.5" fit-margin-left="0.5" fit-margin-right="0.5" fit-margin-top="0.5" id="base" inkscape:current-layer="layer1" inkscape:cx="263.76159" inkscape:cy="96.023973" inkscape:document-units="px" inkscape:pageopacity="0.0" inkscape:pageshadow="2" inkscape:window-height="1028" inkscape:window-maximized="1" inkscape:window-width="1920" inkscape:window-x="-8" inkscape:window-y="-8" inkscape:zoom="2.8" pagecolor="#ffffff" showgrid="false">
	</sodipodi:namedview>
<path class="st0" d="M291.3,133.1c-13.3,37.6-49.5,64.7-92,64.7c-42.7,0-79-26.9-92-64.9l5-1.7l5-1.7c12,33.6,44.1,57.2,82,57.2
	c37.8,0,70.1-24,82.2-57.4L291.3,133.1z"/>
<path class="st0" d="M107.3,66.4c13.3-38.3,49.5-65.9,92-65.9c42.7,0,79,27.4,92,66.1l-5,1.7l-5,1.7c-12-34.2-44.1-58.3-82-58.3
	c-37.8,0-70.1,24.5-82.2,58.4L107.3,66.4z"/>
<line class="st0" x1="223.5" y1="90.8" x2="223.1" y2="78.3"/>
<line class="st0" x1="276.8" y1="90.8" x2="276.7" y2="78.3"/>
<path class="st0" d="M398.3,105.7l0.6-0.6l0.5,12.1c0.1,2.9-11,7.2-17.2,2.7c-6.2-4.5-6.3-9.7-6.3-16.5H347c3.1,8.3,13,7.4,15.8,3.2
	l12.1,2c-4.5,13.9-16.4,15.8-27.8,12c-5.8-2.8-9.3-6.3-11.9-12.2v13.9H321c0-8.5,0-18.2-0.1-26.8c-0.5-5.6-9.5-5.2-9.5,0.3v26.5
	l-14,0.2h-4.1h-5.6l0-8.4c0-3.3-3.8,8.7-8.4,8.4c-9.8,0.7-17.8-4.4-21.9-13.2v13H243v-13c-4.2,8.4-15.2,13.8-25.9,11.1l-1.6-0.7
	c0,0,0.4,14.9,0.4,18.8h-14.4v-38.2c0.4-18,19.8-28.7,34.6-18c3.1,2.6,5.1,5.1,6.9,8.7V61h14.4v30.1c4.7-9.6,13.7-14.3,24.4-12.5
	c7.9,2.2,12.5,6.1,15.7,13.4c4-11.7,15.1-16.5,26.7-12.5c5.8,2.7,9,6.5,11,12.5c5.3-11.5,16.7-16.5,28.6-12.3
	c6,2.7,9.8,6.2,12.3,12.3V69.6H390v8.8h8.8v12.9H390c0,4.4-0.7,8.8,0.7,12.9C392,107.1,395.8,107.7,398.3,105.7"/>
<line class="st0" x1="354.7" y1="78.4" x2="355.3" y2="90.7"/>
<line class="st0" x1="33.9" y1="90.6" x2="34.1" y2="78.3"/>
<path class="st0" d="M183.5,125.1V78.2h-14.2V105c0,4.9-7.1,4.9-7.1,0V78.2H148V61h-14.4V92c-4.6-9.9-13.4-15-24.4-13.5
	c-7.9,1.8-13.5,6.1-16.5,13.5c-2.7-8.7-9.2-13.4-18.2-13.8C65,78.2,57.9,82.9,55,92c-4.8-10.6-14.4-15.7-25.9-13.1
	c-6.9,2.2-11,5.8-14.2,12.2V61H0.5v61.3h14.4v-13.8c4.1,8.2,10.9,12.7,20.1,12.9c9.8-0.6,16-5.2,19.9-13.8v14.7h13.9V95.8
	c0.5-5.8,9.3-5.9,9.8,0v26.5h13.9v-13.9c3.2,7.1,8.2,11.4,15.8,13.3c16.5,1.6,23.1-9.8,23.2-12.7l-11.9-1.8
	c-6,4.6-12.9,2.2-15.1-3.9h29v18.9H148v-9.7c2.4,9.6,14.3,12.9,21,5.7c0,2.1-0.2,4.6-0.9,6.6c-2.2,5.2-9.4,5.2-13.1,1.7l-8.5,11
	c5.4,4.3,10.9,6.3,17.9,5.7c5.8-0.6,9.4-1.6,13.9-5.6C181.7,134,183.2,130.1,183.5,125.1"/>
<path class="st1" d="M223.8,90.8c5,0,9.1,4.1,9.1,9.1c0,5-4.1,9.1-9.1,9.1c-5,0-9.1-4.1-9.1-9.1C214.6,94.9,218.7,90.8,223.8,90.8"
	/>
<path class="st1" d="M277.1,90.8c5,0,9.1,4.1,9.1,9.1c0,5-4.1,9.1-9.1,9.1c-5,0-9.1-4.1-9.1-9.1C267.9,94.9,272,90.8,277.1,90.8"/>
<path class="st1" d="M346.9,97.1h17.5C361.6,88.2,349.2,88.6,346.9,97.1"/>
<path class="st1" d="M34.5,90.6c5,0,9.1,4.1,9.1,9.1c0,5-4.1,9.1-9.1,9.1c-5,0-9.1-4.1-9.1-9.1C25.4,94.7,29.4,90.6,34.5,90.6"/>
<path class="st1" d="M122,97.9c-2.9-9.2-15-9-17.7,0H122z"/>
</svg>
