<svg width="887" height="164" viewBox="0 0 887 164" fill="none" xmlns="http://www.w3.org/2000/svg">
<g clip-path="url(#clip0)">
<g filter="url(#filter0_d)">
<path d="M85.7534 37.5677C85.97 39.7721 86.2691 42.3476 88.0719 46.8096L111.504 56.756L115.097 55.3044L121.653 71.5302L111.359 78.5875L114.461 106.118L103.682 110.473L100.17 101.78L74.0931 112.316L77.6051 121.008L66.7686 125.387C57.8154 113.905 43.1815 94.2018 39.7632 85.7412C35.9001 76.1796 40.5625 65.1958 50.1241 61.3326L78.5191 49.8603C79.0968 45.7846 81.2158 41.0188 85.7534 37.5677ZM86.5619 26.3883C73.987 31.4689 70.661 42.9239 70.661 42.9239L46.6121 52.6403C32.4146 58.3765 25.1474 74.5921 31.0709 89.2532C36.5261 102.755 63.7323 136.725 63.7323 136.725L89.8094 126.189L86.2974 117.497L94.9898 113.985L98.5017 122.677L124.579 112.141L121.287 83.1375L133.154 74.9721L120.277 43.1001L111.585 46.6121L95.3126 39.7049C94.4697 37.6187 95.9156 32.8552 94.6981 29.8419C93.4104 26.6547 89.7491 25.1005 86.5619 26.3883ZM82.0543 65.2841L58.8747 74.6492L55.3628 65.9569L78.5424 56.5917L82.0543 65.2841ZM98.6048 68.7085C96.2289 69.6685 93.4626 68.4942 92.5027 66.1183C91.5427 63.7424 92.7169 60.9761 95.0929 60.0162C97.4688 59.0562 100.235 60.2305 101.195 62.6064C102.155 64.9823 100.981 67.7486 98.6048 68.7085Z" fill="#F95356"/>
</g>
</g>
<path d="M184.127 116.336V50.9961H212.738C220.658 50.9961 226.499 52.5471 230.261 55.6491C234.023 58.7511 235.904 63.1401 235.904 68.8161C235.904 72.3141 234.848 75.4161 232.736 78.1221C230.624 80.8281 227.522 82.5441 223.43 83.2701V83.3691C227.984 84.0291 231.482 85.7451 233.924 88.5171C236.366 91.2891 237.587 94.5891 237.587 98.4171C237.587 104.027 235.541 108.416 231.449 111.584C227.423 114.752 221.516 116.336 213.728 116.336H184.127ZM197.393 78.4191H210.956C218.15 78.4191 221.747 75.6141 221.747 70.0041C221.747 64.3941 218.15 61.5891 210.956 61.5891H197.393V78.4191ZM197.393 106.04H212.54C216.17 106.04 218.876 105.314 220.658 103.862C222.506 102.344 223.43 100.199 223.43 97.4271C223.43 94.7211 222.506 92.6421 220.658 91.1901C218.876 89.6721 216.17 88.9131 212.54 88.9131H197.393V106.04ZM277.966 84.7551C277.966 81.9171 277.141 79.7061 275.491 78.1221C273.907 76.5381 271.795 75.7461 269.155 75.7461C266.713 75.7461 264.568 76.3731 262.72 77.6271C260.872 78.8811 259.519 80.9601 258.661 83.8641L247.078 80.3001C248.2 75.9441 250.642 72.4461 254.404 69.8061C258.232 67.1661 263.347 65.8461 269.749 65.8461C276.217 65.8461 281.431 67.3971 285.391 70.4991C289.417 73.5351 291.43 78.0891 291.43 84.1611V104.258C291.43 106.766 292.618 108.02 294.994 108.02C296.116 108.02 297.172 107.855 298.162 107.525L297.37 115.94C295.654 116.798 293.509 117.227 290.935 117.227C288.097 117.227 285.622 116.633 283.51 115.445C281.464 114.257 280.078 112.475 279.352 110.099C277.768 112.475 275.491 114.29 272.521 115.544C269.617 116.732 266.614 117.326 263.512 117.326C258.496 117.326 254.503 116.204 251.533 113.96C248.629 111.65 247.177 108.317 247.177 103.961C247.177 100.265 248.365 97.2621 250.741 94.9521C253.117 92.5761 256.516 90.9591 260.938 90.1011L277.966 86.6361V84.7551ZM260.74 102.674C260.74 104.324 261.334 105.578 262.522 106.436C263.776 107.294 265.261 107.723 266.977 107.723C268.891 107.723 270.673 107.426 272.323 106.832C273.973 106.238 275.326 105.248 276.382 103.862C277.438 102.41 277.966 100.496 277.966 98.1201V95.0511L267.571 97.1301C265.327 97.5921 263.611 98.2191 262.423 99.0111C261.301 99.7371 260.74 100.958 260.74 102.674ZM307.094 116.336V66.8361H318.875L319.766 76.5381C321.02 73.1721 322.901 70.5651 325.409 68.7171C327.983 66.8031 331.217 65.8461 335.111 65.8461C337.421 65.8461 339.203 66.2091 340.457 66.9351L338.873 78.3201C338.213 78.1221 337.388 77.9571 336.398 77.8251C335.474 77.6271 334.253 77.5281 332.735 77.5281C330.689 77.5281 328.742 78.0231 326.894 79.0131C325.112 79.9371 323.627 81.3891 322.439 83.3691C321.251 85.2831 320.657 87.7251 320.657 90.6951V116.336H307.094ZM377.308 107.03C382.654 107.03 386.779 108.185 389.683 110.495C392.587 112.805 394.039 116.039 394.039 120.197C394.039 124.025 392.95 127.226 390.772 129.8C388.594 132.374 385.525 134.321 381.565 135.641C377.671 136.961 373.15 137.621 368.002 137.621C359.488 137.621 353.251 136.433 349.291 134.057C345.397 131.681 343.45 128.579 343.45 124.751C343.45 122.507 344.143 120.527 345.529 118.811C346.981 117.161 349.291 116.006 352.459 115.346C348.037 113.696 345.826 110.594 345.826 106.04C345.826 103.796 346.486 101.816 347.806 100.1C349.192 98.3841 351.073 97.0971 353.449 96.2391C348.235 93.3351 345.628 88.8141 345.628 82.6761C345.628 77.4621 347.641 73.3701 351.667 70.4001C355.693 67.3641 361.204 65.8461 368.2 65.8461C372.16 65.8461 375.724 66.3741 378.892 67.4301C379.354 63.9981 380.74 61.0941 383.05 58.7181C385.36 56.2761 388.495 55.0551 392.455 55.0551C392.587 55.0551 392.752 55.0551 392.95 55.0551C393.148 55.0551 393.346 55.0551 393.544 55.0551L395.128 64.7571C394.6 64.6911 394.006 64.6581 393.346 64.6581C390.838 64.6581 388.825 65.1531 387.307 66.1431C385.789 67.0671 384.832 68.4201 384.436 70.2021C388.66 73.1721 390.772 77.3301 390.772 82.6761C390.772 87.8241 388.726 91.9161 384.634 94.9521C380.608 97.9221 375.13 99.4071 368.2 99.4071C365.164 99.4071 362.392 99.1431 359.884 98.6151C358.366 99.0111 357.277 99.6051 356.617 100.397C356.023 101.123 355.726 101.948 355.726 102.872C355.726 105.644 357.838 107.03 362.062 107.03H377.308ZM368.2 74.3601C365.56 74.3601 363.382 75.0861 361.666 76.5381C359.95 77.9901 359.092 80.0031 359.092 82.5771C359.092 85.1511 359.95 87.1971 361.666 88.7151C363.382 90.1671 365.56 90.8931 368.2 90.8931C370.774 90.8931 372.919 90.1671 374.635 88.7151C376.351 87.1971 377.209 85.1511 377.209 82.5771C377.209 80.0031 376.351 77.9901 374.635 76.5381C372.919 75.0861 370.774 74.3601 368.2 74.3601ZM368.101 128.315C373.183 128.315 376.945 127.688 379.387 126.434C381.895 125.246 383.149 123.794 383.149 122.078C383.149 120.824 382.654 119.801 381.664 119.009C380.674 118.283 378.892 117.92 376.318 117.92H359.587C358.003 117.92 356.683 118.316 355.627 119.108C354.637 119.966 354.142 121.055 354.142 122.375C354.142 124.223 355.363 125.675 357.805 126.731C360.313 127.787 363.745 128.315 368.101 128.315ZM430.949 84.7551C430.949 81.9171 430.124 79.7061 428.474 78.1221C426.89 76.5381 424.778 75.7461 422.138 75.7461C419.696 75.7461 417.551 76.3731 415.703 77.6271C413.855 78.8811 412.502 80.9601 411.644 83.8641L400.061 80.3001C401.183 75.9441 403.625 72.4461 407.387 69.8061C411.215 67.1661 416.33 65.8461 422.732 65.8461C429.2 65.8461 434.414 67.3971 438.374 70.4991C442.4 73.5351 444.413 78.0891 444.413 84.1611V104.258C444.413 106.766 445.601 108.02 447.977 108.02C449.099 108.02 450.155 107.855 451.145 107.525L450.353 115.94C448.637 116.798 446.492 117.227 443.918 117.227C441.08 117.227 438.605 116.633 436.493 115.445C434.447 114.257 433.061 112.475 432.335 110.099C430.751 112.475 428.474 114.29 425.504 115.544C422.6 116.732 419.597 117.326 416.495 117.326C411.479 117.326 407.486 116.204 404.516 113.96C401.612 111.65 400.16 108.317 400.16 103.961C400.16 100.265 401.348 97.2621 403.724 94.9521C406.1 92.5761 409.499 90.9591 413.921 90.1011L430.949 86.6361V84.7551ZM413.723 102.674C413.723 104.324 414.317 105.578 415.505 106.436C416.759 107.294 418.244 107.723 419.96 107.723C421.874 107.723 423.656 107.426 425.306 106.832C426.956 106.238 428.309 105.248 429.365 103.862C430.421 102.41 430.949 100.496 430.949 98.1201V95.0511L420.554 97.1301C418.31 97.5921 416.594 98.2191 415.406 99.0111C414.284 99.7371 413.723 100.958 413.723 102.674ZM466.907 59.7081C461.297 59.7081 458.492 57.2991 458.492 52.4811C458.492 47.5971 461.297 45.1551 466.907 45.1551C472.517 45.1551 475.322 47.5971 475.322 52.4811C475.322 57.2991 472.517 59.7081 466.907 59.7081ZM473.639 66.8361V116.336H460.076V66.8361H473.639ZM488.512 116.336V66.8361H500.689L501.184 76.1421C502.702 72.7101 504.913 70.1361 507.817 68.4201C510.787 66.7041 514.186 65.8461 518.014 65.8461C523.162 65.8461 527.419 67.3641 530.785 70.4001C534.151 73.3701 535.834 77.8581 535.834 83.8641V116.336H522.271V87.7251C522.271 83.5011 521.413 80.5971 519.697 79.0131C518.047 77.3631 515.935 76.5381 513.361 76.5381C511.513 76.5381 509.698 77.0001 507.916 77.9241C506.2 78.7821 504.781 80.2011 503.659 82.1811C502.603 84.1611 502.075 86.8011 502.075 90.1011V116.336H488.512ZM596.308 50.9961V61.9851H574.429V116.336H560.767V61.9851H538.789V50.9961H596.308ZM600.007 116.336V66.8361H611.788L612.679 76.5381C613.933 73.1721 615.814 70.5651 618.322 68.7171C620.896 66.8031 624.13 65.8461 628.024 65.8461C630.334 65.8461 632.116 66.2091 633.37 66.9351L631.786 78.3201C631.126 78.1221 630.301 77.9571 629.311 77.8251C628.387 77.6271 627.166 77.5281 625.648 77.5281C623.602 77.5281 621.655 78.0231 619.807 79.0131C618.025 79.9371 616.54 81.3891 615.352 83.3691C614.164 85.2831 613.57 87.7251 613.57 90.6951V116.336H600.007ZM669.612 84.7551C669.612 81.9171 668.787 79.7061 667.137 78.1221C665.553 76.5381 663.441 75.7461 660.801 75.7461C658.359 75.7461 656.214 76.3731 654.366 77.6271C652.518 78.8811 651.165 80.9601 650.307 83.8641L638.724 80.3001C639.846 75.9441 642.288 72.4461 646.05 69.8061C649.878 67.1661 654.993 65.8461 661.395 65.8461C667.863 65.8461 673.077 67.3971 677.037 70.4991C681.063 73.5351 683.076 78.0891 683.076 84.1611V104.258C683.076 106.766 684.264 108.02 686.64 108.02C687.762 108.02 688.818 107.855 689.808 107.525L689.016 115.94C687.3 116.798 685.155 117.227 682.581 117.227C679.743 117.227 677.268 116.633 675.156 115.445C673.11 114.257 671.724 112.475 670.998 110.099C669.414 112.475 667.137 114.29 664.167 115.544C661.263 116.732 658.26 117.326 655.158 117.326C650.142 117.326 646.149 116.204 643.179 113.96C640.275 111.65 638.823 108.317 638.823 103.961C638.823 100.265 640.011 97.2621 642.387 94.9521C644.763 92.5761 648.162 90.9591 652.584 90.1011L669.612 86.6361V84.7551ZM652.386 102.674C652.386 104.324 652.98 105.578 654.168 106.436C655.422 107.294 656.907 107.723 658.623 107.723C660.537 107.723 662.319 107.426 663.969 106.832C665.619 106.238 666.972 105.248 668.028 103.862C669.084 102.41 669.612 100.496 669.612 98.1201V95.0511L659.217 97.1301C656.973 97.5921 655.257 98.2191 654.069 99.0111C652.947 99.7371 652.386 100.958 652.386 102.674ZM729.278 66.8361H743.336L724.526 116.336H708.884L690.074 66.8361H704.627L716.804 105.941L729.278 66.8361ZM773.733 117.326C765.945 117.326 759.708 115.082 755.022 110.594C750.336 106.04 747.993 99.7041 747.993 91.5861C747.993 86.1741 749.049 81.5541 751.161 77.7261C753.273 73.8981 756.21 70.9611 759.972 68.9151C763.8 66.8691 768.156 65.8461 773.04 65.8461C778.056 65.8461 782.313 66.8691 785.811 68.9151C789.309 70.8951 791.982 73.6341 793.83 77.1321C795.678 80.5641 796.602 84.4911 796.602 88.9131C796.602 90.2331 796.569 91.4871 796.503 92.6751C796.437 93.8631 796.338 94.9191 796.206 95.8431H761.259C761.787 99.6711 763.107 102.542 765.219 104.456C767.397 106.304 770.202 107.228 773.634 107.228C776.538 107.228 778.881 106.667 780.663 105.545C782.445 104.423 783.831 102.872 784.821 100.892L795.612 105.05C794.028 108.944 791.256 111.98 787.296 114.158C783.336 116.27 778.815 117.326 773.733 117.326ZM772.941 75.8451C766.539 75.8451 762.678 79.3761 761.358 86.4381H783.633C783.237 83.0061 782.115 80.3991 780.267 78.6171C778.485 76.7691 776.043 75.8451 772.941 75.8451ZM821.956 45.1551V101.09C821.956 103.4 822.352 105.017 823.144 105.941C823.936 106.865 825.256 107.327 827.104 107.327C828.226 107.327 829.15 107.261 829.876 107.129C830.602 106.997 831.526 106.733 832.648 106.337L831.46 115.247C830.338 115.907 828.919 116.402 827.203 116.732C825.553 117.128 823.903 117.326 822.253 117.326C817.435 117.326 813.904 116.171 811.66 113.861C809.482 111.485 808.393 107.723 808.393 102.575V45.1551H821.956ZM860.5 117.326C855.484 117.326 850.897 116.435 846.739 114.653C842.647 112.871 839.314 110.363 836.74 107.129L844.561 99.2091C846.145 101.585 848.257 103.532 850.897 105.05C853.537 106.568 856.672 107.327 860.302 107.327C862.876 107.327 864.922 106.964 866.44 106.238C868.024 105.446 868.816 104.225 868.816 102.575C868.816 101.519 868.453 100.628 867.727 99.9021C867.001 99.1101 865.549 98.4831 863.371 98.0211L854.659 96.2391C848.917 95.0511 844.825 93.2691 842.383 90.8931C840.007 88.4511 838.819 85.3161 838.819 81.4881C838.819 78.7821 839.611 76.2411 841.195 73.8651C842.845 71.4891 845.287 69.5751 848.521 68.1231C851.755 66.6051 855.781 65.8461 860.599 65.8461C870.631 65.8461 877.825 68.9151 882.181 75.0531L874.063 82.9731C872.611 80.6631 870.697 78.9141 868.321 77.7261C866.011 76.4721 863.569 75.8451 860.995 75.8451C855.187 75.8451 852.283 77.4621 852.283 80.6961C852.283 81.7521 852.745 82.6761 853.669 83.4681C854.593 84.1941 856.276 84.8211 858.718 85.3491L868.816 87.4281C873.7 88.4181 877.198 90.1011 879.31 92.4771C881.422 94.7871 882.478 97.5921 882.478 100.892C882.478 105.644 880.564 109.571 876.736 112.673C872.974 115.775 867.562 117.326 860.5 117.326Z" fill="#343A40"/>
<defs>
<filter id="filter0_d" x="13.0231" y="17.0231" width="135.838" height="133.384" filterUnits="userSpaceOnUse" color-interpolation-filters="sRGB">
<feFlood flood-opacity="0" result="BackgroundImageFix"/>
<feColorMatrix in="SourceAlpha" type="matrix" values="0 0 0 0 0 0 0 0 0 0 0 0 0 0 0 0 0 0 127 0" result="hardAlpha"/>
<feOffset dy="5"/>
<feGaussianBlur stdDeviation="2"/>
<feComposite in2="hardAlpha" operator="out"/>
<feColorMatrix type="matrix" values="0 0 0 0 0.203922 0 0 0 0 0.227451 0 0 0 0 0.25098 0 0 0 0.25 0"/>
<feBlend mode="normal" in2="BackgroundImageFix" result="effect1_dropShadow"/>
<feBlend mode="normal" in="SourceGraphic" in2="effect1_dropShadow" result="shape"/>
</filter>
<clipPath id="clip0">
<rect width="125" height="125" fill="white" transform="translate(0.750732 47.5765) rotate(-22)"/>
</clipPath>
</defs>
</svg>
