<svg width="180" height="60" viewBox="0 0 180 60" fill="none" xmlns="http://www.w3.org/2000/svg">
<path d="M169.733 29.57L168.263 29.97C166.85 25.17 164.483 23.096 161.141 23.096C158.793 23.096 157.141 24.643 157.141 27.096C157.141 29.444 159.089 30.696 164.321 32.824C169.151 34.6 171.156 36.776 171.156 40.576C171.156 46.361 166.612 49.989 159.156 49.989C155.556 49.989 151.5 49.187 149.208 48.271L148.922 40.233L150.335 39.947C152.455 45.447 155.165 47.527 158.698 47.527C161.753 47.527 163.358 45.407 163.358 43.231C163.358 41.055 162.118 39.794 157.344 38.076C152.8 36.576 149.688 34.639 149.688 29.809C149.688 25.055 153.868 21.026 160.991 21.026C164.351 21.026 167.406 21.599 169.411 22.526L169.733 29.57ZM138.973 32.09C139.145 28.31 138.381 22.85 135.269 22.85C132.069 22.85 130.324 27.948 130.267 32.32L138.973 32.09ZM136.033 21.016C143.861 21.016 147.633 26.744 147.699 34.266H130.095C130.038 40.929 133.57 45.97 140.175 45.97C143.058 45.97 144.719 45.168 146.475 43.908L147.295 44.824C145.348 47.459 141.338 49.979 135.992 49.979C127.4 49.979 121.442 44.079 121.442 35.755C121.422 28.232 126.312 21.015 136.029 21.015L136.033 21.016ZM110.639 34.955C110.467 28.998 108.291 24.282 104.109 24.282C103.116 24.282 102.352 24.454 101.169 24.855L101.513 47.748C101.933 47.92 102.926 48.034 103.633 48.034C107.7 48.034 110.64 42.287 110.64 34.954L110.639 34.955ZM119.366 34.496C119.366 43.909 113.409 49.98 103.346 49.98C99.746 49.98 96.033 49.407 92.806 48.663C93.092 44.883 93.092 21.463 92.806 17.063C92.52 14.763 91.87 13.683 90.106 13.463L88.922 13.348V12.298L101.34 10C101.283 11.947 101.168 17.064 101.168 23.08C103.345 21.992 105.348 21.362 108.061 21.362C114.534 21.362 119.364 26.862 119.364 34.498L119.366 34.496ZM87.728 29.38C83.89 26.86 79.766 27.948 78.945 29.38C78.582 33.78 78.659 40.58 79.002 44.063C79.174 46.363 79.822 47.328 81.599 47.5L83.947 47.73V49.23H66.4V47.73L67.756 47.5C69.456 47.328 70.056 46.354 70.162 44.063C70.582 40.34 70.697 32.531 70.162 28.235C70.047 25.772 69.456 24.855 67.756 24.635L66.4 24.463V23.433L78.944 21.027L78.772 27.442C81.712 20.798 87.555 19.996 90.724 21.772L87.728 29.38ZM46.563 35.528C46.563 42.535 48.463 48.263 52.263 48.263C56.387 48.263 57.571 42.65 57.571 35.528C57.571 28.406 55.747 22.85 51.87 22.85C47.727 22.85 46.562 28.292 46.562 35.528H46.563ZM66.457 35.413C66.457 43.451 61.149 49.981 51.679 49.981C42.362 49.981 37.665 43.776 37.665 35.641C37.665 27.661 42.973 21.016 52.443 21.016C61.76 21.016 66.457 27.259 66.457 35.412V35.413ZM42.076 21.6L40.129 22.173C38.487 16.541 35.585 13.333 30.582 13.333H24.052C23.689 17.075 23.517 22.86 23.689 29.103L28.042 28.873C30.982 28.873 32.222 26.753 32.93 23.661H34.572V36.681H32.93C32.224 33.531 30.983 31.381 28.042 31.221L23.689 31.164C23.689 35.804 23.746 39.764 24.052 42.181C24.338 45.618 25.292 47.183 27.812 47.508L30.18 47.738V49.238H8.854V47.738L10.63 47.508C13.093 47.164 14.105 45.608 14.39 42.181C14.867 36.568 14.982 24.577 14.39 17.914C14.104 14.364 13.092 12.931 10.63 12.644L8.854 12.358V10.81H42.02L42.076 21.6Z" fill="black"/>
</svg>
