<svg width="184" height="61" viewBox="0 0 184 61" fill="none" xmlns="http://www.w3.org/2000/svg">
<path d="M178.539 36.9006L183.677 40.314C182.024 42.7573 178.036 46.9611 171.173 46.9611C162.657 46.9611 156.298 40.3499 156.298 31.9781C156.298 23.0314 162.729 16.9951 170.454 16.9951C178.251 16.9951 182.06 23.1752 183.317 26.5526L184 28.2414L163.915 36.5413C165.46 39.5595 167.831 41.0685 171.209 41.0685C174.514 41.0685 176.886 39.4157 178.539 36.9006ZM162.801 31.511L176.203 25.9418C175.449 24.0734 173.257 22.744 170.634 22.744C167.292 22.744 162.657 25.6903 162.801 31.511Z" fill="#FF302F"/>
<path d="M153.064 1.68874H146.596V45.5958H153.064V1.68874Z" fill="#20B15A"/>
<path d="M136.392 18.1449H142.644V44.8412C142.644 55.9078 136.105 60.471 128.38 60.471C121.086 60.471 116.738 55.5845 115.085 51.5962L120.798 49.2248C121.84 51.668 124.319 54.5784 128.38 54.5784C133.338 54.5784 136.392 51.4884 136.392 45.7395V43.5837H136.177C134.703 45.3802 131.865 46.9971 128.272 46.9971C120.762 46.9971 113.9 40.4577 113.9 32.05C113.9 23.5704 120.762 16.9951 128.272 16.9951C131.829 16.9951 134.703 18.5761 136.177 20.3367H136.392V18.1449ZM136.859 32.0141C136.859 26.6963 133.338 22.8518 128.847 22.8518C124.32 22.8518 120.475 26.6963 120.475 32.0141C120.475 37.2599 124.284 41.0326 128.847 41.0326C133.338 41.0685 136.859 37.2599 136.859 32.0141Z" fill="#3686F7"/>
<path d="M78.4003 31.9063C78.4003 40.5655 71.6813 46.8893 63.3813 46.8893C55.1173 46.8893 48.3983 40.5296 48.3983 31.9063C48.3983 23.2111 55.1173 16.8873 63.3813 16.8873C71.6453 16.8873 78.4003 23.2111 78.4003 31.9063ZM71.825 31.9063C71.825 26.5167 67.9086 22.8159 63.3813 22.8159C58.8541 22.8159 54.9377 26.5167 54.9377 31.9063C54.9377 37.2599 58.8541 40.9967 63.3813 40.9967C67.9086 40.9967 71.825 37.2599 71.825 31.9063Z" fill="#FF302F"/>
<path d="M111.169 31.9781C111.169 40.6374 104.45 46.9611 96.15 46.9611C87.8501 46.9611 81.1311 40.6014 81.1311 31.9781C81.1311 23.283 87.8501 16.9951 96.15 16.9951C104.45 16.9951 111.169 23.247 111.169 31.9781ZM104.594 31.9781C104.594 26.5886 100.677 22.8877 96.15 22.8877C91.6228 22.8877 87.7064 26.5886 87.7064 31.9781C87.7064 37.3318 91.6228 41.0685 96.15 41.0685C100.677 41.0685 104.594 37.2958 104.594 31.9781Z" fill="#FFBA40"/>
<path d="M23.75 40.3859C14.3363 40.3859 6.97051 32.8045 6.97051 23.3907C6.97051 13.977 14.3363 6.39563 23.75 6.39563C28.8162 6.39563 32.5171 8.40773 35.2837 10.9588L39.811 6.43156C36.0023 2.76665 30.9002 0 23.786 0C10.851 0 0 10.4917 0 23.3907C0 36.2898 10.851 46.7815 23.75 46.7815C30.7206 46.7815 35.9664 44.4819 40.0625 40.2062C44.2664 36.0023 45.5958 30.0738 45.5958 25.2591C45.5958 23.7501 45.4161 22.205 45.2005 21.0553H23.75V27.3072H39.0564C38.5893 31.2236 37.3677 33.8824 35.5352 35.7149C33.3076 37.9426 29.8582 40.3859 23.75 40.3859Z" fill="#3686F7"/>
</svg>
