<svg width="60" height="60" viewBox="0 0 60 60" fill="none" xmlns="http://www.w3.org/2000/svg">
<path d="M20.6021 1.64713C13.1474 4.1502 6.78957 9.62673 3.25933 16.5312C2.02546 18.9167 1.13433 21.4533 0.603079 24.074C-0.750752 30.5921 0.191789 37.5301 3.25933 43.477C5.24723 47.3576 8.10913 50.8015 11.5708 53.4893C14.844 56.0428 18.6484 57.9243 22.6928 58.9827C27.7825 60.3266 33.215 60.293 38.3561 59.1507C43.0003 58.1091 47.3873 55.9252 50.8833 52.767C54.5849 49.4239 57.224 45.0394 58.6293 40.3188C60.1545 35.1615 60.3601 29.6681 59.4005 24.3932C49.8037 24.3932 40.2069 24.3932 30.593 24.3932C30.593 28.2906 30.593 32.2048 30.593 36.1022C36.1454 36.1022 41.715 36.1022 47.2674 36.1022C46.6162 39.8484 44.3541 43.2587 41.1323 45.3753C39.1101 46.7025 36.7966 47.576 34.3974 47.9792C31.9811 48.3824 29.4962 48.4328 27.097 47.9624C24.6464 47.492 22.3158 46.4841 20.2765 45.073C17.0204 42.8387 14.5355 39.546 13.2674 35.867C11.965 32.1208 11.9478 27.9378 13.2674 24.1916C14.1757 21.5541 15.7009 19.1015 17.7059 17.1192C20.1736 14.6329 23.3783 12.869 26.84 12.1466C29.8047 11.525 32.9236 11.6426 35.8198 12.4994C38.2876 13.2386 40.5496 14.5489 42.4176 16.296C44.3027 14.4649 46.1706 12.617 48.0557 10.7859C49.0325 9.79472 50.0779 8.85397 51.0375 7.82922C48.1928 5.24215 44.8339 3.15905 41.1837 1.84872C34.6373 -0.55356 27.217 -0.603958 20.6021 1.64713Z" fill="white"/>
<path d="M20.602 1.64744C27.2169 -0.603652 34.6372 -0.553253 41.2179 1.83223C44.8681 3.14256 48.2098 5.22566 51.0717 7.81273C50.112 8.82068 49.0838 9.77823 48.0899 10.7694C46.2048 12.6005 44.3368 14.4484 42.4518 16.2795C40.5838 14.5324 38.3217 13.2053 35.854 12.4829C32.9578 11.6261 29.8389 11.5085 26.8741 12.1301C23.4125 12.8525 20.2078 14.6332 17.7401 17.1027C15.735 19.085 14.2098 21.5376 13.3016 24.1751C9.95984 21.6384 6.6181 19.085 3.27637 16.5483C6.78947 9.62704 13.1473 4.15051 20.602 1.64744Z" fill="#E94435"/>
<path d="M0.60308 24.0743C1.13433 21.4536 2.0426 18.917 3.25933 16.5315C6.60107 19.0682 9.94281 21.6216 13.2845 24.1583C11.965 27.9045 11.9821 32.0875 13.2845 35.8337C9.94281 38.3704 6.60107 40.9239 3.25933 43.4605C0.191789 37.5472 -0.750752 30.5924 0.60308 24.0743Z" fill="#F8BB15"/>
<path d="M30.61 24.3767C40.2068 24.3767 49.8036 24.3767 59.4175 24.3767C60.3772 29.6516 60.1716 35.145 58.6464 40.3023C57.2411 45.0229 54.602 49.4242 50.9004 52.7505C47.6615 50.281 44.4054 47.8115 41.1836 45.342C44.4054 43.2422 46.6675 39.8151 47.3187 36.0689C41.7663 36.0689 36.1967 36.0689 30.6443 36.0689C30.5929 32.1883 30.61 28.2909 30.61 24.3767Z" fill="#547DBE"/>
<path d="M3.25928 43.4773C6.60101 40.9407 9.94274 38.3872 13.2845 35.8505C14.5526 39.5463 17.0375 42.8222 20.2935 45.0565C22.3329 46.4676 24.6635 47.4587 27.1141 47.9459C29.5133 48.4163 32.0153 48.3659 34.4145 47.9627C36.8137 47.5595 39.1272 46.686 41.1494 45.3589C44.3883 47.8283 47.6443 50.2978 50.8661 52.7673C47.3702 55.9423 42.9831 58.1094 38.3389 59.151C33.2149 60.2933 27.7825 60.3269 22.6756 58.983C18.6312 57.9246 14.8268 56.0431 11.5536 53.4896C8.10907 50.785 5.24718 47.3412 3.25928 43.4773Z" fill="#34A751"/>
</svg>
