<svg width="102" height="50" viewBox="0 0 102 50" fill="none" xmlns="http://www.w3.org/2000/svg">
<path d="M74.2814 33.5603C70.8899 43.0408 61.6589 49.8739 50.8214 49.8739C39.9329 49.8739 30.6764 43.0913 27.3615 33.5098L28.6365 33.0812L29.9114 32.6525C32.9714 41.1246 41.1569 47.0751 50.8214 47.0751C60.4604 47.0751 68.6969 41.0237 71.7824 32.6021L74.2814 33.5603Z" fill="#2A3E92"/>
<path d="M27.3615 16.7423C30.7529 7.08522 39.9839 0.126068 50.8214 0.126068C61.7099 0.126068 70.9664 7.03479 74.2814 16.7927L73.0064 17.2214L71.7314 17.65C68.6714 9.02672 60.4859 2.95007 50.8214 2.95007C41.1824 2.95007 32.9459 9.12758 29.8604 17.6752L27.3615 16.7423Z" fill="#2A3E92"/>
<path d="M101.566 26.6515L101.719 26.5003L101.847 29.5512C101.872 30.2824 99.042 31.3666 97.461 30.232C95.88 29.0973 95.8544 27.7862 95.8544 26.0716H88.4849C89.2754 28.1644 91.7999 27.9375 92.5139 26.8785L95.5994 27.3828C94.4519 30.8875 91.4175 31.3666 88.5105 30.4085C87.0315 29.7025 86.139 28.82 85.476 27.3323V30.8371H81.8549C81.8549 28.6939 81.8549 26.2481 81.8294 24.0797C81.7019 22.6677 79.4069 22.7685 79.4069 24.1553V30.8371L75.8369 30.8875H74.7914H73.3635V28.7695C73.3635 27.9375 72.3944 30.9632 71.2214 30.8875C68.7224 31.064 66.6824 29.7781 65.6369 27.5593V30.8371H61.9649V27.5593C60.8939 29.6773 58.0889 31.0388 55.3604 30.358L54.9524 30.1815C54.9524 30.1815 55.0544 33.9385 55.0544 34.9218H51.3824V25.29C51.4844 20.7514 56.4314 18.0535 60.2054 20.7514C60.9959 21.407 61.5059 22.0373 61.9649 22.945V15.3807H65.6369V22.9702C66.8354 20.5497 69.1304 19.3646 71.8589 19.8185C73.8734 20.3732 75.0464 21.3565 75.8624 23.1972C76.8824 20.2471 79.713 19.0368 82.671 20.0454C84.15 20.7262 84.966 21.6843 85.476 23.1972C86.8275 20.2975 89.7344 19.0368 92.7689 20.0958C94.2989 20.7766 95.268 21.6591 95.9055 23.1972V17.5492H99.45V19.768H101.694V23.0207H99.45C99.45 24.1301 99.2715 25.2395 99.6285 26.2733C99.96 27.0045 100.929 27.1558 101.566 26.6515Z" fill="#2A3E92"/>
<path d="M46.7924 31.5431V19.7176H43.1714V26.475C43.1714 27.7105 41.3609 27.7105 41.3609 26.475V19.7176H37.7399V15.3807H34.0679V23.1972C32.8949 20.701 30.6509 19.415 27.8459 19.7932C25.8314 20.2471 24.4034 21.3313 23.6384 23.1972C22.9499 21.0035 21.2924 19.8185 18.9974 19.7176C16.5749 19.7176 14.7644 20.9027 14.0249 23.1972C12.8009 20.5245 10.3529 19.2385 7.42044 19.8941C5.66094 20.4488 4.61544 21.3565 3.79944 22.9703V15.3807H0.127441V30.8371H3.79944V27.3575C4.84494 29.4251 6.57894 30.5598 8.92494 30.6102C11.4239 30.4589 13.0049 29.299 13.9994 27.1306V30.8371H17.5439V24.1553C17.6714 22.6929 19.9154 22.6677 20.0429 24.1553V30.8371H23.5874V27.3323C24.4034 29.1225 25.6784 30.2068 27.6164 30.6858C31.8239 31.0893 33.5069 28.2148 33.5324 27.4836L30.4979 27.0298C28.9679 28.1896 27.2084 27.5845 26.6474 26.0464H34.0424V30.8119H37.7399V28.3661C38.3519 30.7867 41.3864 31.6188 43.0949 29.8033C43.0949 30.3328 43.0439 30.9632 42.8654 31.4675C42.3044 32.7786 40.4684 32.7786 39.5249 31.8961L37.3574 34.6697C38.7344 35.7539 40.1369 36.2582 41.9219 36.1069C43.4009 35.9556 44.3189 35.7035 45.4664 34.6949C46.3334 33.7872 46.7159 32.8038 46.7924 31.5431Z" fill="#2A3E92"/>
<path d="M57.069 22.8946C58.344 22.8946 59.3895 23.9284 59.3895 25.1891C59.3895 26.4498 58.344 27.4836 57.069 27.4836C55.794 27.4836 54.7485 26.4498 54.7485 25.1891C54.723 23.9284 55.7685 22.8946 57.069 22.8946Z" fill="white"/>
<path d="M70.6606 22.8946C71.9356 22.8946 72.9811 23.9284 72.9811 25.1891C72.9811 26.4498 71.9356 27.4836 70.6606 27.4836C69.3856 27.4836 68.3401 26.4498 68.3401 25.1891C68.3146 23.9284 69.3601 22.8946 70.6606 22.8946Z" fill="white"/>
<path d="M88.4595 24.4831H92.922C92.208 22.239 89.046 22.3399 88.4595 24.4831Z" fill="white"/>
<path d="M8.79755 22.8442C10.0726 22.8442 11.1181 23.878 11.1181 25.1387C11.1181 26.3994 10.0726 27.4332 8.79755 27.4332C7.52255 27.4332 6.47705 26.3994 6.47705 25.1387C6.47705 23.878 7.49705 22.8442 8.79755 22.8442Z" fill="white"/>
<path d="M31.1099 24.6848C30.3704 22.3651 27.2849 22.4155 26.5964 24.6848H31.1099Z" fill="white"/>
</svg>
