<svg width="255" height="50" viewBox="0 0 255 50" fill="none" xmlns="http://www.w3.org/2000/svg">
<path d="M9.70486 30.1706V21.1811L6.69305 22.3622C6.69305 22.3622 5.95683 23.8714 6.09069 26.1024C6.15761 27.874 7.22848 29.9082 8.03163 30.8268L9.70486 30.1706ZM17.8033 11.6667C18.4726 11.7323 19.6104 12.0604 20.4135 12.7165C21.2836 13.5039 21.4844 14.7507 21.2167 15.8661C20.949 16.8504 20.6143 17.3753 19.5435 18.0971C18.4726 18.8189 17.6694 18.8845 17.6694 18.8845V23.2152L19.7442 24.79L17.6694 26.6273V32.5328C17.6694 32.5328 19.4096 31.1549 20.7482 28.4646C20.7482 28.4646 20.8151 28.3334 20.949 28.0053C21.0828 28.7271 21.0159 30.2362 20.1458 32.0735C19.4765 33.5171 18.3387 34.8294 16.7994 35.6168C14.1891 36.9948 12.1812 37.126 10.1064 36.7323C7.63006 36.273 5.35446 34.9606 3.88202 32.6641C2.81116 31.0236 2.34265 29.1864 2.34265 27.1522C2.40958 23.1496 5.55525 19.7375 9.16943 18.4252C9.63793 18.294 9.77179 18.1627 10.3742 18.0971C10.1064 18.294 9.77179 18.4908 9.37022 18.7533C8.23242 19.4751 7.22848 20.9186 6.75998 22.0341L13.7206 19.0814V28.3334L8.16549 31.0236C8.83478 31.8767 10.7757 33.1234 12.449 33.3202C15.26 33.6483 17.134 32.5984 17.134 32.5984V26.5617L15.0592 24.79L17.134 23.2152V18.8845C15.9293 18.7533 14.256 18.2284 13.4529 18.0315C12.1812 17.769 8.03163 16.6536 7.36234 16.5223C6.69305 16.4567 5.8899 16.4567 5.42139 16.8504C4.95289 17.2441 4.61824 18.0315 4.81903 18.6877C4.95289 19.0814 5.22061 19.2782 5.42139 19.4751C5.42139 19.4751 5.15368 19.4751 4.7521 19.2126C3.94895 18.7533 3.34659 17.9003 3.27966 16.7848C3.24058 16.0981 3.3797 15.4129 3.68402 14.7933C3.98834 14.1736 4.44792 13.6397 5.01982 13.2415C6.09069 12.5853 7.29541 12.1916 8.70092 12.3885C10.7757 12.6509 13.5198 13.7664 15.9962 14.357C16.9332 14.5538 17.6694 14.6194 18.3387 14.2913C18.6734 14.0945 19.2088 13.5039 18.7403 12.7822C18.2049 11.9291 17.2009 11.9291 16.3308 11.7979C17.134 11.6667 17.2679 11.6667 17.8033 11.6667" fill="#251802"/>
<path d="M45.0435 27.8084L41.8309 30.0394V22.6903L45.0435 27.8084ZM44.9096 20.7218L41.3624 22.7559L38.0159 24.462V32.9921L36.7443 33.9764L36.945 34.1733L38.2167 33.189L42.1655 36.5355L48.9923 31.4173L48.8584 31.2205L45.0435 34.042L41.8309 31.3517V30.3019L48.0553 25.9711L44.9096 20.7218Z" fill="#251802"/>
<path d="M26.9726 39.8819C27.8427 40.0788 29.449 40.21 31.39 39.2914C33.5317 38.3071 34.3348 36.1417 34.3348 33.9764L34.4018 30.8924V24.0683L35.7404 23.084L35.6065 22.8871L34.2679 23.8714L31.39 20.5906L26.9726 23.8058V12.9134L22.4884 16.5223C22.6892 16.6535 23.6931 16.7848 23.6931 17.7034V32.9921L21.3506 34.4357L21.4844 34.6326L22.4884 33.9108L25.2994 36.4042L29.7167 33.0578L29.5829 32.8609L28.512 33.6483L27.0396 32.6641V24.1339L28.7797 23.084L31.1892 25.5118V32.8609C31.1892 34.8294 30.6537 37.126 29.5829 38.3071C28.512 39.4882 28.1104 39.5538 26.9726 39.8819" fill="#251802"/>
<path d="M57.6261 39.0945C55.8859 38.8977 55.1497 37.9134 55.1497 37.0604C55.1497 36.5355 55.6852 35.5512 56.756 35.42C57.8269 35.2887 58.8978 35.7481 59.8348 36.7979L63.9174 32.5328L63.7167 32.336L62.6458 33.5171C61.508 32.336 60.1694 31.5486 58.5631 31.3517V18.294L68.9371 36.6011C68.9371 36.6011 69.2048 36.7979 69.6734 36.7979C70.0749 36.7979 69.9411 36.5355 69.9411 36.5355V18.0971C70.8111 18.0971 71.9489 17.6378 72.6182 16.9816C74.6261 15.0131 73.823 12.8478 73.6222 12.5853C73.4883 13.5039 72.7521 14.4882 71.4804 14.4882C69.8072 14.4882 68.8033 13.3071 68.8033 13.3071L64.5867 17.769L64.7875 17.9659L65.9253 16.7192C67.3308 17.9659 68.134 18.0971 69.2048 18.1627V28.8583L61.6418 15.2756C60.9056 14.1601 59.8348 13.1759 58.1615 13.1759C56.2206 13.1759 54.8151 14.8163 54.6143 16.1942C54.4135 17.769 54.6143 18.1627 54.6143 18.1627C54.6143 18.1627 54.882 16.3911 56.0198 16.3911C57.0237 16.3911 57.3584 16.916 57.8269 17.5722V21.9029C56.756 21.9685 54.2127 22.0998 54.0119 24.8557C54.0119 25.9055 54.6812 26.9554 55.2836 27.2835C56.0198 27.7428 56.6222 27.7428 56.6222 27.7428C56.6222 27.7428 55.7521 27.2835 56.0198 26.3648C56.2875 25.5774 57.8269 25.4462 57.8938 25.7743V31.2861C57.0237 31.2861 54.5474 31.3517 53.2757 33.5827C52.5395 34.895 52.6064 36.4042 53.3426 37.4541C54.0119 38.3727 55.3505 39.4882 57.6261 39.0945" fill="#251802"/>
<path d="M80.1143 27.8084L76.634 30.0394V22.6903L80.1143 27.8084ZM79.9805 20.7218L76.3663 22.7559L73.2206 24.462V32.9921L71.949 33.9764L72.1498 34.1733L73.4214 33.189L77.1025 36.5355L83.9293 31.4173L83.7954 31.2205L79.9805 34.042L76.9017 31.2861V30.2362L83.1261 25.9055L79.9805 20.7218Z" fill="#251802"/>
<path d="M89.6183 36.7323L86.2718 34.1076L84.7994 35.0919L84.6655 34.895L86.138 33.8452V26.4305C86.2049 23.4121 83.1931 24.1339 83.3939 20.9187C83.4608 19.4751 84.9333 18.4252 85.6695 18.0971C86.4726 17.7034 87.2758 17.7034 87.2758 17.7034C87.2758 17.7034 85.8703 18.4908 86.2049 19.6719C86.7403 21.5092 89.9529 21.6404 90.0199 24.0683V32.4672L92.0947 34.3045L92.697 33.8452V24.7244L91.76 23.4777L95.1065 20.6562L98.1852 23.2152L96.7797 24.3963V32.4672L99.8585 34.6982L100.394 34.3701V24.7244L99.1222 23.5433L102.469 20.6562L105.614 23.084L106.886 22.0341L107.02 22.231L104.209 24.5932V32.4672L97.0474 36.6667L93.3663 33.9764L89.6183 36.7323Z" fill="#251802"/>
<path d="M236.795 27.8084L233.248 30.0394V22.6903L236.795 27.8084ZM236.729 20.7218L233.114 22.7559L229.835 24.462V32.9921L228.429 33.9764L228.63 34.1733L229.902 33.189L233.851 36.5355L240.677 31.4173L240.544 31.2205L236.729 34.042L233.583 31.2861V30.2362L239.807 25.9055L236.729 20.7218Z" fill="#251802"/>
<path d="M213.169 23.937L213.906 23.3465L215.847 25.7087V32.7297L215.244 33.5171L218.055 36.4698L221.067 33.6483L219.862 32.5328V24.0026L220.732 23.3465L223.209 25.6431V32.6641L222.205 33.3202L225.351 36.5355L229.5 32.9265L229.299 32.7297L228.295 33.5827L226.555 32.0079V24.0026L228.229 22.8872L228.095 22.6903L226.555 23.8058L223.744 20.7874L219.729 23.8058L216.851 20.9186L212.969 23.8058L210.091 20.9186L205.941 24.3307L206.075 24.5276L207.414 23.4777L209.288 25.5118V32.5984L208.351 33.3858L211.362 36.6011L214.441 33.7139L213.169 32.4672V23.937ZM207.347 33.189L207.213 32.9921L206.008 33.9764L204.402 32.2047V24.2651L205.807 23.1496L205.606 22.9528L204.268 24.0683L201.39 20.853L197.106 24.1339L197.642 24.2651L198.713 23.4121L200.453 25.315V33.3858L199.248 34.3701L199.382 34.567L200.654 33.5171L203.398 36.5355L207.347 33.189ZM201.591 14.8163L204 17.3753L200.988 19.9344L198.579 17.441L201.591 14.8163Z" fill="#251802"/>
<path d="M185.193 30.1706V21.1811L182.382 22.3622C182.382 22.3622 181.646 23.8714 181.78 26.1024C181.847 27.874 182.918 29.9082 183.721 30.8268L185.193 30.1706ZM193.225 11.6667C193.961 11.7323 195.032 12.0604 195.835 12.7165C196.705 13.5039 196.906 14.7507 196.638 15.8661C196.37 16.8504 196.036 17.3753 194.965 18.0971C193.894 18.8189 193.091 18.7533 193.091 18.7533V23.084L195.099 24.79L193.091 26.4961V32.336C193.091 32.336 194.764 31.1549 196.17 28.4646C196.17 28.4646 196.236 28.3334 196.37 28.0053C196.504 28.7271 196.437 30.2362 195.567 32.0735C194.898 33.5171 193.76 34.8294 192.221 35.6168C189.611 36.9948 187.603 37.126 185.528 36.7323C183.051 36.273 180.776 34.9606 179.303 32.6641C178.233 31.0236 177.764 29.1864 177.764 27.1522C177.831 23.1496 180.977 19.7375 184.591 18.4252C184.992 18.294 185.193 18.1627 185.796 18.0971C185.528 18.294 185.193 18.4908 184.792 18.7533C183.654 19.4751 182.65 20.9186 182.181 22.0341L189.075 19.2126V28.4646L183.587 31.0236C184.256 31.8767 186.197 33.1234 187.87 33.3202C190.681 33.6483 192.488 32.4672 192.488 32.4672V26.4305L190.481 24.7244L192.488 23.0184V18.6877C191.284 18.5564 189.744 18.1627 188.874 17.9659C187.603 17.7034 183.453 16.5879 182.784 16.4567C182.114 16.3911 181.311 16.3911 180.843 16.7848C180.374 17.1785 180.04 17.9659 180.24 18.6221C180.374 19.0158 180.642 19.2126 180.843 19.4095C180.843 19.4095 180.575 19.4095 180.173 19.147C179.37 18.6877 178.768 17.8347 178.701 16.7192C178.662 16.0325 178.801 15.3473 179.105 14.7277C179.41 14.108 179.869 13.5741 180.441 13.1759C181.512 12.5197 182.717 12.126 184.122 12.3228C186.197 12.5853 188.941 13.7008 191.418 14.2913C192.355 14.4882 193.091 14.5538 193.76 14.2257C194.095 14.0289 194.63 13.4383 194.162 12.7165C193.626 11.8635 192.622 11.8635 191.752 11.7323C192.488 11.6667 192.689 11.6667 193.225 11.6667" fill="#251802"/>
<path d="M245.296 22.4278V26.6929L247.17 27.9396C247.17 27.9396 250.382 25.4462 251.587 23.2152C251.587 23.2152 250.114 25.1181 248.174 24.5276C246.5 24.0683 245.697 22.4935 245.697 22.4935L245.296 22.4278ZM242.016 33.6483C242.016 33.6483 243.422 31.4173 245.898 31.8767C248.24 32.336 249.311 34.6982 249.311 34.6982V29.3176L247.37 28.0053C245.63 29.7113 242.418 32.1391 242.016 33.6483V33.6483ZM244.359 37.7166C243.89 37.8478 241.949 37.3885 241.481 35.42C241.012 33.5171 242.418 32.2704 244.492 30.2362L242.016 28.0709V24.0026C242.016 24.0026 243.823 23.1496 245.229 22.2966L248.107 20.5249C248.107 20.5249 249.177 21.7717 250.382 21.706C252.256 21.5748 252.189 20.1312 252.122 19.8032C252.457 20.3281 253.327 21.9685 249.981 25.5774L252.658 27.6116V32.9265C252.658 32.9265 249.579 34.4357 246.567 36.5355C246.567 36.5355 244.894 34.5669 243.488 35.4856C242.551 36.2074 243.02 37.2572 244.359 37.7166" fill="#251802"/>
<path d="M136.201 31.6798L139.681 34.6326V25.5774L136.201 22.5591V31.6798ZM143.63 24.2651L144.835 23.2152L145.036 23.4121L143.563 24.4619V32.9265L140.083 34.895L136.87 36.7323L132.788 33.4515L131.717 34.3701L131.516 34.1732L132.922 33.2546V24.0682H132.721L136.268 22.3622L139.347 20.6562L143.63 24.2651Z" fill="#251802"/>
<path d="M151.729 23.4121L154.339 20.853C154.339 20.853 154.673 21.1811 155.008 21.3124C155.209 21.378 156.012 21.7717 156.681 21.378C157.083 21.1811 157.15 21.1155 157.551 20.7218C157.618 22.6903 156.614 24.0683 155.41 24.6588C154.874 24.9213 153.134 25.315 151.528 23.5433V32.6641L153.469 34.042L154.874 32.9921L155.008 33.189L150.725 36.6011L147.445 33.7796L146.24 34.8294L146.04 34.6326L147.512 33.1234V25.315L146.441 23.6089L145.236 24.5932L145.036 24.3963L149.185 20.853L151.729 23.4121Z" fill="#251802"/>
<path d="M162.705 27.2179L167.524 20.5906C167.524 20.5906 168.193 21.3123 169.264 21.5748C170.736 21.9685 172.075 20.5906 172.075 20.5906C171.807 22.3622 170.87 24.3963 168.929 24.7244C167.189 24.9869 165.583 23.7402 165.583 23.7402L165.248 24.1995L171.941 33.7795L173.28 32.6641L173.481 32.8609L168.862 36.6667L162.705 27.2179Z" fill="#251802"/>
<path d="M158.957 18.294C158.957 16.8504 158.087 15.9974 157.284 16.063L162.303 12.5853V32.4016L163.91 33.7796L164.981 32.9265L165.181 33.1234L160.965 36.6011L158.087 34.042L156.949 35.0263L156.748 34.8294L159.024 33.189V18.294H158.957Z" fill="#251802"/>
<path d="M124.957 23.8714C124.957 23.8714 124.355 24.5276 123.485 24.5276C122.547 24.5276 122.146 23.8714 122.146 23.8714V26.5617C122.146 26.5617 122.547 25.9055 123.485 25.9055C124.422 25.9055 124.957 26.4961 124.957 26.4961V23.8714ZM124.823 18.0971L123.15 16.3911L122.146 17.1129V23.4777C122.146 23.4777 122.748 24.1995 123.685 24.1995C124.622 24.1995 124.823 23.4777 124.823 23.4777V18.0971ZM122.146 36.0761C122.146 36.0761 123.351 36.4042 124.288 35.6824C125.292 34.895 124.823 33.8452 124.823 33.8452V27.021C124.823 27.021 124.555 26.2992 123.685 26.2992C122.748 26.2992 122.146 27.021 122.146 27.021V36.0761ZM114.784 17.9659C114.784 16.6536 114.181 15.8661 113.311 15.8661C111.973 15.8661 111.638 17.6378 111.638 17.6378C111.638 17.6378 111.37 16.2599 112.642 15.0131C113.311 14.2913 114.583 13.3071 116.591 13.7664C118.666 14.2257 119.469 15.7349 119.469 17.1129V35.5512C119.822 35.6353 120.179 35.701 120.54 35.748C121.142 35.8793 121.477 36.0105 121.477 36.0105V13.832H122.146V16.8504L126.229 13.6352L129.307 16.2599L130.78 15.0787L130.914 15.2756L129.441 16.5223V33.6483C129.374 34.7638 129.173 35.8793 128.036 36.5354C125.559 37.9134 122.548 36.3386 119.87 35.9449C117.862 35.6824 114.784 35.2887 113.981 37.0604C113.713 37.6509 113.713 38.504 114.65 39.0945C116.457 40.21 124.488 37.1916 127.233 38.3727C129.709 39.4882 129.709 41.2599 129.374 42.441C128.705 44.6719 125.693 45.1312 125.693 45.1312C125.693 45.1312 127.166 44.3438 126.764 42.9659C126.563 42.3097 126.095 42.1129 124.488 42.2441C121.075 42.6378 116.925 44.2126 114.181 43.0971C112.776 42.5066 111.772 40.8662 111.839 39.1601C111.906 36.7979 114.851 35.8137 114.851 35.8137V26.9554C114.784 26.6273 113.244 26.6929 112.843 27.3491C112.307 28.3333 113.512 28.7927 113.512 28.7927C113.512 28.7927 112.575 28.9239 111.772 28.0709C111.37 27.6772 110.567 26.168 111.638 24.7244C112.508 23.5433 113.579 23.3465 114.918 23.2152L114.784 17.9659Z" fill="#251802"/>
</svg>
