<?xml version="1.0" standalone="no"?>
<!DOCTYPE svg PUBLIC "-//W3C//DTD SVG 20010904//EN"
 "http://www.w3.org/TR/2001/REC-SVG-20010904/DTD/svg10.dtd">
<svg version="1.0" xmlns="http://www.w3.org/2000/svg"
 width="700.000000pt" height="700.000000pt" viewBox="0 0 700.000000 700.000000"
 preserveAspectRatio="xMidYMid meet">
<metadata>
Created by potrace 1.14, written by Peter Selinger 2001-2017
</metadata>
<g transform="translate(0.000000,700.000000) scale(0.100000,-0.100000)"
fill="#000000" stroke="none">
<path d="M3689 5890 c-62 -22 -150 -67 -229 -119 -77 -51 -84 -56 -176 -147
-105 -104 -173 -201 -239 -338 l-53 -109 -108 -44 c-60 -24 -293 -119 -519
-210 -225 -90 -445 -182 -488 -203 -229 -114 -419 -304 -537 -538 -56 -112
-80 -185 -116 -352 -14 -62 -13 -267 0 -353 8 -50 13 -94 10 -99 -3 -4 -1 -8
4 -8 11 0 34 -99 25 -112 -3 -6 -1 -8 4 -5 10 6 26 -29 27 -58 1 -5 4 -12 7
-15 3 -3 20 -36 38 -73 17 -37 54 -107 82 -154 27 -47 49 -88 49 -90 0 -3 9
-18 21 -34 11 -16 18 -29 15 -29 -3 0 3 -9 14 -20 12 -12 18 -25 15 -30 -3 -4
-1 -10 4 -12 13 -5 174 -250 174 -265 0 -6 4 -10 9 -7 5 4 12 -3 15 -15 3 -12
10 -21 15 -21 6 0 8 -7 5 -15 -4 -8 -1 -17 5 -21 7 -4 8 -3 4 4 -4 7 -5 12 -2
12 2 0 15 -17 27 -37 13 -21 31 -47 41 -58 10 -10 16 -25 13 -33 -2 -7 -1 -10
5 -7 11 7 33 -32 25 -45 -3 -5 0 -8 7 -5 8 3 35 -27 68 -76 30 -45 65 -93 78
-108 12 -14 20 -32 17 -39 -3 -7 -1 -11 4 -8 5 3 28 -22 52 -55 24 -34 49 -66
54 -73 29 -32 65 -86 58 -86 -4 0 3 -7 15 -16 16 -11 21 -22 17 -37 -4 -14 -3
-18 2 -9 7 9 19 -1 44 -34 19 -26 33 -51 31 -56 -1 -5 1 -7 6 -4 5 3 37 -34
72 -82 36 -48 69 -90 73 -93 5 -4 6 -12 2 -19 -5 -8 -4 -11 3 -6 13 8 44 -33
35 -47 -3 -6 -2 -7 4 -4 5 3 49 -45 98 -107 l89 -114 46 21 c25 11 54 24 65
28 177 72 190 77 203 67 9 -8 11 -7 7 3 -6 17 80 53 99 42 6 -3 7 -2 3 2 -10
11 181 88 195 79 6 -4 8 -2 4 4 -7 12 58 37 74 27 6 -4 9 -1 8 6 -2 6 11 16
27 22 17 5 72 27 124 49 51 22 102 40 112 41 11 1 19 5 19 10 0 5 9 7 20 4 11
-3 18 -2 15 3 -2 4 18 17 45 28 l50 21 -20 52 c-12 29 -25 60 -31 70 -5 11 -7
19 -3 19 3 0 2 6 -4 13 -6 7 -20 39 -33 72 -12 33 -26 66 -32 73 -5 6 -7 12
-4 12 3 0 -1 12 -8 27 -16 30 -9 43 24 46 11 1 21 5 21 10 0 5 9 7 20 4 11 -3
18 -2 15 2 -6 11 125 62 138 54 6 -3 7 -1 3 5 -6 11 5 15 30 11 4 0 10 3 13 8
6 10 92 46 95 41 1 -2 17 -41 35 -88 18 -47 39 -98 46 -115 18 -42 29 -79 27
-87 -1 -5 2 -8 6 -8 4 0 14 -15 20 -34 12 -32 38 -53 50 -41 3 3 -1 5 -9 5 -8
1 24 16 70 35 46 19 88 32 94 28 6 -4 7 -1 2 7 -6 10 -4 12 8 7 10 -3 17 -2
17 2 0 12 60 32 73 24 5 -3 7 -1 4 4 -4 6 3 13 16 17 34 9 40 7 33 -10 -3 -9
-2 -12 5 -9 6 4 8 13 5 21 -3 9 2 17 12 20 9 4 56 22 104 41 49 20 92 32 99
28 8 -5 10 -4 5 3 -11 18 42 36 60 21 8 -6 12 -14 10 -18 -3 -4 0 -13 5 -21 7
-12 8 -10 6 7 -2 12 -6 26 -10 29 -11 11 -8 24 4 24 6 0 25 7 42 14 100 46
209 86 219 80 7 -4 8 -3 4 4 -6 11 12 17 37 13 4 0 7 4 7 10 0 6 7 8 16 5 8
-3 12 -2 9 4 -6 9 10 14 42 13 7 -1 10 4 7 9 -4 6 -1 9 7 6 8 -3 20 1 27 9 7
7 23 13 34 13 19 0 19 4 13 70 -4 39 -10 95 -14 125 -5 35 -4 59 3 66 8 9 8
10 0 6 -8 -5 -14 17 -19 66 -4 39 -9 79 -10 87 -5 39 -18 148 -20 175 -8 82
-16 153 -20 181 -7 48 -17 145 -19 192 -2 23 -6 45 -9 49 -4 3 -1 13 6 21 9
13 9 14 0 8 -10 -5 -13 4 -14 36 -1 24 -2 59 -3 78 0 19 -5 38 -11 42 -6 5 -5
8 3 8 6 0 12 5 12 11 0 5 -4 7 -10 4 -5 -3 -10 3 -10 13 0 18 24 37 43 34 4
-1 7 2 7 6 0 17 106 82 127 78 12 -3 28 3 35 12 11 13 11 14 -2 7 -19 -12 -40
-15 -40 -7 1 8 147 105 152 101 2 -1 19 12 38 29 19 18 41 30 48 27 7 -3 10
-1 7 4 -10 16 15 23 33 9 15 -11 16 -11 4 3 -11 15 -8 20 22 39 l35 21 -18 47
c-10 26 -26 67 -36 92 -9 25 -23 59 -30 75 -7 17 -70 172 -140 345 -69 173
-133 329 -141 347 -8 17 -14 34 -14 38 0 3 -11 31 -25 61 -14 30 -25 60 -25
67 0 7 -4 17 -8 23 -5 5 -33 69 -62 142 -29 72 -53 132 -54 132 -2 0 -86 -34
-187 -75 l-184 -74 -345 146 c-190 80 -349 150 -355 155 -6 5 -8 79 -7 182 3
153 1 179 -17 227 -52 139 -199 207 -342 159z m-37 -522 c0 -18 2 -49 2 -70 1
-20 4 -34 9 -31 4 2 8 -7 9 -21 2 -46 3 -51 8 -56 3 -3 18 -44 35 -92 21 -65
35 -90 50 -94 26 -8 89 -36 95 -43 3 -4 12 -7 20 -9 39 -8 118 -46 113 -55 -3
-6 -1 -7 5 -3 11 7 92 -22 92 -33 0 -4 10 -7 22 -8 11 -1 24 -6 27 -10 3 -4
15 -10 26 -11 25 -5 109 -44 113 -53 2 -5 9 -6 16 -3 8 3 20 -2 29 -10 9 -9
22 -16 30 -16 21 0 111 -41 119 -54 4 -6 8 -8 8 -4 0 12 102 -32 118 -50 7 -9
11 -11 7 -4 -5 10 -1 10 22 0 15 -7 31 -16 34 -21 3 -5 10 -8 15 -7 20 4 83
-24 78 -34 -3 -6 0 -4 8 5 16 19 77 41 91 32 5 -3 7 -2 4 4 -4 6 5 15 18 21
26 12 42 1 29 -20 -4 -6 -3 -8 3 -5 6 4 16 -6 22 -23 5 -17 7 -30 3 -30 -4 0
-2 -4 4 -8 16 -11 175 -413 167 -425 -4 -6 -1 -7 7 -2 10 6 12 4 7 -8 -4 -10
-2 -17 4 -17 6 0 8 -7 5 -16 -3 -8 -2 -12 4 -9 6 3 10 3 10 -2 0 -4 3 -19 7
-32 5 -19 3 -22 -8 -16 -8 5 -11 4 -6 -1 5 -5 13 -9 19 -9 5 0 16 -15 23 -32
14 -32 10 -39 -18 -34 -4 0 -6 -3 -5 -8 2 -5 -15 -21 -37 -36 -49 -34 -173
-119 -280 -194 -44 -30 -83 -59 -86 -64 -4 -5 -3 -23 0 -41 4 -17 7 -56 7 -88
-1 -31 2 -54 7 -51 4 2 7 -15 8 -39 0 -24 2 -50 3 -58 3 -16 11 -81 22 -185 3
-33 9 -64 12 -69 3 -5 -1 -6 -9 -1 -11 7 -12 6 -3 -6 7 -8 15 -45 19 -84 3
-38 8 -79 11 -90 3 -11 6 -50 8 -86 2 -36 5 -70 8 -75 5 -10 11 -77 12 -141 1
-24 3 -43 7 -43 3 0 6 -19 7 -43 2 -23 5 -50 8 -59 6 -20 7 -19 -261 -126
l-199 -80 -75 184 c-41 101 -79 184 -84 184 -5 0 -23 -6 -40 -14 -44 -19 -187
-77 -657 -266 -223 -90 -407 -165 -409 -166 -3 -3 43 -129 69 -189 39 -88 51
-125 44 -136 -4 -7 -3 -10 3 -6 11 7 23 -14 23 -40 0 -9 -6 -13 -15 -9 -8 3
-15 1 -15 -4 0 -5 -10 -12 -22 -15 -13 -4 -36 -12 -53 -20 -16 -7 -88 -36
-160 -65 -71 -28 -142 -58 -157 -65 -20 -10 -30 -10 -41 -1 -13 10 -109 133
-242 311 -33 44 -63 84 -68 90 -4 5 -21 28 -37 50 -16 22 -33 45 -38 50 -125
157 -652 931 -652 958 0 2 -20 39 -45 83 -25 43 -43 86 -40 94 4 8 3 11 -1 7
-9 -9 -54 98 -57 135 -1 16 -5 28 -8 28 -4 0 -10 30 -14 68 -12 115 -14 142
-6 138 4 -3 8 1 8 9 0 8 -3 15 -7 15 -11 0 8 109 35 198 19 60 30 82 43 83 9
0 12 3 5 5 -9 4 -9 11 -1 30 6 13 14 24 18 24 4 0 7 6 7 13 0 22 64 107 75
101 6 -4 8 -2 4 4 -3 6 24 40 60 77 62 60 89 75 89 47 0 -5 3 -13 7 -17 8 -9
5 16 -5 32 -9 14 8 27 23 18 6 -4 9 -1 8 6 -4 14 141 90 176 93 13 0 22 4 20
8 -2 4 6 9 18 13 13 4 38 13 56 21 18 8 37 12 42 9 6 -3 10 -2 10 3 0 14 229
104 242 96 7 -5 8 -2 3 6 -6 10 -4 12 8 7 10 -4 17 -2 17 4 0 6 8 8 17 5 10
-4 14 -4 10 0 -10 10 153 75 167 67 6 -3 8 -3 4 2 -8 8 141 74 175 77 9 1 17
5 17 8 0 4 17 12 37 18 27 8 40 8 50 0 11 -8 12 -7 7 5 -6 17 28 37 69 40 9 1
17 4 17 8 0 10 51 30 61 24 5 -4 9 -1 9 5 0 7 7 9 16 6 8 -3 12 -2 9 4 -3 6 1
10 9 10 8 0 30 7 49 16 30 14 35 23 46 77 17 82 60 189 74 180 6 -3 7 -1 3 5
-8 14 24 73 36 66 4 -3 5 1 3 8 -3 8 10 30 29 51 18 20 32 37 29 37 -2 0 2 6
9 14 11 12 16 12 32 -2 18 -16 18 -16 5 5 -12 21 -10 25 26 58 22 19 43 35 48
35 4 0 8 -15 9 -32z"/>
<path d="M3616 5353 c-6 -14 -5 -15 5 -6 7 7 10 15 7 18 -3 3 -9 -2 -12 -12z"/>
<path d="M3539 5273 c-12 -16 -12 -17 2 -6 9 7 20 9 24 5 5 -4 5 -1 1 6 -9 16
-11 15 -27 -5z"/>
<path d="M3590 5225 c0 -7 30 -13 34 -7 3 4 -4 9 -15 9 -10 1 -19 0 -19 -2z"/>
<path d="M3490 5179 c0 -5 5 -7 10 -4 6 3 10 8 10 11 0 2 -4 4 -10 4 -5 0 -10
-5 -10 -11z"/>
<path d="M3370 4979 c0 -5 5 -7 10 -4 6 3 10 8 10 11 0 2 -4 4 -10 4 -5 0 -10
-5 -10 -11z"/>
<path d="M3735 4980 c3 -5 8 -10 11 -10 2 0 4 5 4 10 0 6 -5 10 -11 10 -5 0
-7 -4 -4 -10z"/>
<path d="M3770 4980 c0 -5 5 -10 11 -10 5 0 7 5 4 10 -3 6 -8 10 -11 10 -2 0
-4 -4 -4 -10z"/>
<path d="M3814 4960 c0 -13 4 -16 10 -10 7 7 7 13 0 20 -6 6 -10 3 -10 -10z"/>
<path d="M3836 4922 c-3 -5 1 -9 9 -9 8 0 12 4 9 9 -3 4 -7 8 -9 8 -2 0 -6 -4
-9 -8z"/>
<path d="M3899 4913 c-13 -16 -12 -17 4 -4 16 13 21 21 13 21 -2 0 -10 -8 -17
-17z"/>
<path d="M3855 4889 c-4 -6 -5 -12 -2 -15 2 -3 7 2 10 11 7 17 1 20 -8 4z"/>
<path d="M3946 4858 c3 -4 9 -8 15 -8 5 0 9 4 9 8 0 5 -7 9 -15 9 -8 0 -12 -4
-9 -9z"/>
<path d="M3993 4855 c0 -8 4 -12 9 -9 5 3 6 10 3 15 -9 13 -12 11 -12 -6z"/>
<path d="M4057 4853 c-10 -9 -9 -23 1 -23 5 0 9 7 9 15 0 17 -1 18 -10 8z"/>
<path d="M3296 4842 c-3 -5 1 -9 9 -9 8 0 12 4 9 9 -3 4 -7 8 -9 8 -2 0 -6 -4
-9 -8z"/>
<path d="M4100 4826 c0 -2 8 -10 18 -17 15 -13 16 -12 3 4 -13 16 -21 21 -21
13z"/>
<path d="M3216 4802 c-3 -5 1 -9 9 -9 8 0 12 4 9 9 -3 4 -7 8 -9 8 -2 0 -6 -4
-9 -8z"/>
<path d="M4026 4798 c3 -5 10 -6 15 -3 13 9 11 12 -6 12 -8 0 -12 -4 -9 -9z"/>
<path d="M4160 4805 c0 -2 6 -8 13 -14 10 -8 14 -7 14 2 0 8 -6 14 -14 14 -7
0 -13 -1 -13 -2z"/>
<path d="M3956 4787 c3 -10 9 -15 12 -12 3 3 0 11 -7 18 -10 9 -11 8 -5 -6z"/>
<path d="M4119 4788 c-5 -18 -6 -38 -1 -34 7 8 12 36 6 36 -2 0 -4 -1 -5 -2z"/>
<path d="M2979 4713 c-13 -16 -12 -17 4 -4 16 13 21 21 13 21 -2 0 -10 -8 -17
-17z"/>
<path d="M3046 4722 c-3 -5 1 -9 9 -9 8 0 12 4 9 9 -3 4 -7 8 -9 8 -2 0 -6 -4
-9 -8z"/>
<path d="M4265 4720 c-3 -6 1 -7 9 -4 18 7 21 14 7 14 -6 0 -13 -4 -16 -10z"/>
<path d="M4313 4715 c0 -8 4 -12 9 -9 4 3 8 9 8 15 0 5 -4 9 -8 9 -5 0 -9 -7
-9 -15z"/>
<path d="M4350 4720 c0 -5 5 -10 11 -10 5 0 7 5 4 10 -3 6 -8 10 -11 10 -2 0
-4 -4 -4 -10z"/>
<path d="M3027 4699 c7 -7 15 -10 18 -7 3 3 -2 9 -12 12 -14 6 -15 5 -6 -5z"/>
<path d="M3154 4702 c4 -3 14 -7 22 -8 9 -1 13 0 10 4 -4 3 -14 7 -22 8 -9 1
-13 0 -10 -4z"/>
<path d="M4427 4699 c7 -7 15 -10 18 -7 3 3 -2 9 -12 12 -14 6 -15 5 -6 -5z"/>
<path d="M2915 4661 c0 -22 3 -37 7 -35 7 5 5 60 -3 68 -3 3 -5 -12 -4 -33z"/>
<path d="M4379 4698 c-5 -18 -6 -38 -1 -34 7 8 12 36 6 36 -2 0 -4 -1 -5 -2z"/>
<path d="M4330 4679 c0 -5 5 -7 10 -4 6 3 10 8 10 11 0 2 -4 4 -10 4 -5 0 -10
-5 -10 -11z"/>
<path d="M3055 4660 c-3 -5 -1 -10 4 -10 6 0 11 5 11 10 0 6 -2 10 -4 10 -3 0
-8 -4 -11 -10z"/>
<path d="M4434 4649 c-3 -6 -2 -15 3 -20 5 -5 9 -1 9 11 0 23 -2 24 -12 9z"/>
<path d="M4550 4656 c0 -2 8 -10 18 -17 15 -13 16 -12 3 4 -13 16 -21 21 -21
13z"/>
<path d="M4377 4635 c-4 -8 -3 -16 1 -19 4 -3 9 4 9 15 2 23 -3 25 -10 4z"/>
<path d="M2799 4635 c-1 -3 -2 -8 -3 -12 -1 -5 -5 -15 -10 -23 -7 -12 -6 -13
4 -3 13 12 23 43 14 43 -2 0 -5 -2 -5 -5z"/>
<path d="M2751 4613 c7 -12 15 -20 18 -17 3 2 -3 12 -13 22 -17 16 -18 16 -5
-5z"/>
<path d="M2710 4616 c0 -2 8 -10 18 -17 15 -13 16 -12 3 4 -13 16 -21 21 -21
13z"/>
<path d="M4576 4607 c3 -10 9 -15 12 -12 3 3 0 11 -7 18 -10 9 -11 8 -5 -6z"/>
<path d="M4526 4598 c3 -5 10 -6 15 -3 13 9 11 12 -6 12 -8 0 -12 -4 -9 -9z"/>
<path d="M2810 4579 c0 -5 5 -7 10 -4 6 3 10 8 10 11 0 2 -4 4 -10 4 -5 0 -10
-5 -10 -11z"/>
<path d="M3300 4580 c-8 -6 -168 -71 -355 -145 -376 -150 -370 -148 -405 -163
-14 -6 -50 -21 -80 -33 -126 -49 -121 -46 -106 -82 76 -176 77 -179 65 -194
-10 -11 -8 -12 6 -6 15 5 17 3 12 -11 -4 -10 -3 -15 3 -11 9 5 15 -15 11 -37
0 -5 3 -8 7 -8 4 0 14 -16 21 -35 11 -30 16 -35 34 -29 12 3 27 7 32 8 6 0 12
3 15 7 13 14 112 49 122 43 7 -4 8 -3 4 4 -6 11 12 17 37 13 4 0 7 4 7 10 0 6
6 9 12 7 7 -3 19 2 27 9 8 8 22 12 33 10 10 -3 16 -2 13 3 -7 11 82 43 96 34
7 -4 9 -3 5 4 -8 13 5 21 38 24 14 1 26 6 26 11 0 5 7 7 15 3 8 -3 15 -2 15 3
0 10 55 34 76 34 8 0 14 4 14 9 0 4 7 8 15 8 8 0 23 4 33 10 47 26 167 70 179
65 8 -2 12 -1 9 3 -2 4 31 22 74 40 l79 33 -36 87 c-19 48 -41 101 -48 117 -7
17 -25 60 -40 98 -27 66 -36 74 -65 57z"/>
<path d="M4490 4579 c0 -5 5 -7 10 -4 6 3 10 8 10 11 0 2 -4 4 -10 4 -5 0 -10
-5 -10 -11z"/>
<path d="M4814 4569 c-3 -6 -2 -15 3 -20 5 -5 9 -1 9 11 0 23 -2 24 -12 9z"/>
<path d="M4854 4560 c0 -13 4 -16 10 -10 7 7 7 13 0 20 -6 6 -10 3 -10 -10z"/>
<path d="M4587 4559 c7 -7 15 -10 18 -7 3 3 -2 9 -12 12 -14 6 -15 5 -6 -5z"/>
<path d="M4626 4558 c3 -5 10 -6 15 -3 13 9 11 12 -6 12 -8 0 -12 -4 -9 -9z"/>
<path d="M2589 4543 c-13 -16 -12 -17 4 -4 9 7 17 15 17 17 0 8 -8 3 -21 -13z"/>
<path d="M2515 4530 c-4 -6 -10 -8 -15 -5 -5 3 -11 1 -14 -4 -8 -13 22 -7 36
7 7 7 9 12 6 12 -4 0 -10 -5 -13 -10z"/>
<path d="M2595 4521 c-3 -5 -2 -12 3 -15 5 -3 9 1 9 9 0 17 -3 19 -12 6z"/>
<path d="M4736 4518 c3 -5 10 -6 15 -3 13 9 11 12 -6 12 -8 0 -12 -4 -9 -9z"/>
<path d="M2409 4483 c-13 -16 -12 -17 4 -4 9 7 17 15 17 17 0 8 -8 3 -21 -13z"/>
<path d="M2376 4473 c-6 -14 -5 -15 5 -6 7 7 10 15 7 18 -3 3 -9 -2 -12 -12z"/>
<path d="M2395 4449 c-4 -6 -5 -12 -2 -15 2 -3 7 2 10 11 7 17 1 20 -8 4z"/>
<path d="M2513 4445 c0 -8 4 -12 9 -9 5 3 6 10 3 15 -9 13 -12 11 -12 -6z"/>
<path d="M4059 4451 c-72 -23 -146 -126 -137 -191 3 -17 0 -30 -6 -30 -8 0 -8
-2 0 -8 15 -10 34 -68 26 -79 -4 -4 -3 -5 1 -1 5 4 22 -7 38 -23 63 -65 147
-77 232 -35 48 23 60 35 82 80 33 68 34 122 4 183 -44 88 -148 132 -240 104z"/>
<path d="M2450 4420 c0 -5 5 -10 11 -10 5 0 7 5 4 10 -3 6 -8 10 -11 10 -2 0
-4 -4 -4 -10z"/>
<path d="M4973 4395 c0 -8 4 -12 9 -9 5 3 6 10 3 15 -9 13 -12 11 -12 -6z"/>
<path d="M2237 4393 c-10 -9 -9 -23 1 -23 5 0 9 7 9 15 0 17 -1 18 -10 8z"/>
<path d="M2273 4385 c0 -8 4 -12 9 -9 5 3 6 10 3 15 -9 13 -12 11 -12 -6z"/>
<path d="M2136 4381 c-3 -4 3 -16 13 -25 14 -13 18 -14 18 -2 0 8 -5 14 -11
13 -6 -1 -10 4 -8 11 2 14 -4 16 -12 3z"/>
<path d="M2016 4322 c-3 -5 1 -9 9 -9 8 0 12 4 9 9 -3 4 -7 8 -9 8 -2 0 -6 -4
-9 -8z"/>
<path d="M2156 4318 c3 -5 10 -6 15 -3 13 9 11 12 -6 12 -8 0 -12 -4 -9 -9z"/>
<path d="M2107 4299 c7 -7 15 -10 18 -7 3 3 -2 9 -12 12 -14 6 -15 5 -6 -5z"/>
<path d="M1990 4259 c0 -5 5 -7 10 -4 6 3 10 8 10 11 0 2 -4 4 -10 4 -5 0 -10
-5 -10 -11z"/>
<path d="M2094 4262 c4 -3 14 -7 22 -8 9 -1 13 0 10 4 -4 3 -14 7 -22 8 -9 1
-13 0 -10 -4z"/>
<path d="M1896 4142 c-3 -5 1 -9 9 -9 8 0 12 4 9 9 -3 4 -7 8 -9 8 -2 0 -6 -4
-9 -8z"/>
<path d="M3406 4138 c3 -5 10 -6 15 -3 13 9 11 12 -6 12 -8 0 -12 -4 -9 -9z"/>
<path d="M1786 4118 c3 -5 10 -6 15 -3 13 9 11 12 -6 12 -8 0 -12 -4 -9 -9z"/>
<path d="M3216 4082 c-3 -5 1 -9 9 -9 8 0 12 4 9 9 -3 4 -7 8 -9 8 -2 0 -6 -4
-9 -8z"/>
<path d="M3270 4079 c0 -5 5 -7 10 -4 6 3 10 8 10 11 0 2 -4 4 -10 4 -5 0 -10
-5 -10 -11z"/>
<path d="M3387 4079 c7 -7 15 -10 18 -7 3 3 -2 9 -12 12 -14 6 -15 5 -6 -5z"/>
<path d="M3335 4060 c3 -5 8 -10 11 -10 2 0 4 5 4 10 0 6 -5 10 -11 10 -5 0
-7 -4 -4 -10z"/>
<path d="M3970 4059 c0 -5 5 -7 10 -4 6 3 10 8 10 11 0 2 -4 4 -10 4 -5 0 -10
-5 -10 -11z"/>
<path d="M5086 4062 c-3 -5 1 -9 9 -9 8 0 12 4 9 9 -3 4 -7 8 -9 8 -2 0 -6 -4
-9 -8z"/>
<path d="M1780 4046 c0 -2 8 -10 18 -17 15 -13 16 -12 3 4 -13 16 -21 21 -21
13z"/>
<path d="M3040 4020 c-9 -6 -10 -10 -3 -10 6 0 15 5 18 10 8 12 4 12 -15 0z"/>
<path d="M3079 4028 c-5 -13 -5 -60 0 -63 4 -2 7 12 7 31 0 29 -3 42 -7 32z"/>
<path d="M3296 4022 c-2 -4 -1 -14 4 -22 7 -11 9 -9 7 8 -1 24 -3 26 -11 14z"/>
<path d="M1726 3998 c3 -5 10 -6 15 -3 13 9 11 12 -6 12 -8 0 -12 -4 -9 -9z"/>
<path d="M4113 3995 c0 -8 4 -12 9 -9 5 3 6 10 3 15 -9 13 -12 11 -12 -6z"/>
<path d="M2991 3987 c-8 -10 -7 -14 2 -14 8 0 14 6 14 14 0 7 -1 13 -2 13 -2
0 -8 -6 -14 -13z"/>
<path d="M4170 3979 c0 -5 5 -7 10 -4 6 3 10 8 10 11 0 2 -4 4 -10 4 -5 0 -10
-5 -10 -11z"/>
<path d="M4216 3982 c-3 -5 1 -9 9 -9 8 0 12 4 9 9 -3 4 -7 8 -9 8 -2 0 -6 -4
-9 -8z"/>
<path d="M2873 3933 c0 -9 4 -10 14 -2 7 6 13 12 13 14 0 1 -6 2 -13 2 -8 0
-14 -6 -14 -14z"/>
<path d="M4110 3939 c0 -5 5 -7 10 -4 6 3 10 8 10 11 0 2 -4 4 -10 4 -5 0 -10
-5 -10 -11z"/>
<path d="M2910 3921 c0 -6 4 -13 10 -16 6 -3 7 1 4 9 -7 18 -14 21 -14 7z"/>
<path d="M2759 3893 c-13 -16 -12 -17 4 -4 16 13 21 21 13 21 -2 0 -10 -8 -17
-17z"/>
<path d="M2700 3885 c0 -2 6 -8 13 -14 10 -8 14 -7 14 2 0 8 -6 14 -14 14 -7
0 -13 -1 -13 -2z"/>
<path d="M2833 3875 c0 -8 4 -12 9 -9 5 3 6 10 3 15 -9 13 -12 11 -12 -6z"/>
<path d="M2710 3846 c0 -2 7 -7 16 -10 8 -3 12 -2 9 4 -6 10 -25 14 -25 6z"/>
<path d="M2545 3800 c-3 -6 1 -7 9 -4 18 7 21 14 7 14 -6 0 -13 -4 -16 -10z"/>
<path d="M2709 3763 c-13 -16 -12 -17 4 -4 9 7 17 15 17 17 0 8 -8 3 -21 -13z"/>
<path d="M2535 3751 c-3 -5 -2 -12 3 -15 5 -3 9 1 9 9 0 17 -3 19 -12 6z"/>
<path d="M2595 3740 c3 -5 8 -10 11 -10 2 0 4 5 4 10 0 6 -5 10 -11 10 -5 0
-7 -4 -4 -10z"/>
<path d="M1639 3633 c-13 -16 -12 -17 4 -4 16 13 21 21 13 21 -2 0 -10 -8 -17
-17z"/>
<path d="M5616 3698 c3 -5 10 -6 15 -3 13 9 11 12 -6 12 -8 0 -12 -4 -9 -9z"/>
<path d="M5547 3659 c7 -7 15 -10 18 -7 3 3 -2 9 -12 12 -14 6 -15 5 -6 -5z"/>
<path d="M5519 3658 c-5 -9 -5 -48 -1 -43 6 6 11 45 5 45 -2 0 -4 -1 -4 -2z"/>
<path d="M5477 3632 c-15 -16 -15 -19 -2 -19 8 0 13 3 10 5 -3 3 0 11 6 19 17
20 5 16 -14 -5z"/>
<path d="M5555 3590 c-4 -6 -11 -7 -17 -4 -7 4 -8 2 -4 -5 6 -9 11 -9 22 0 14
11 18 19 10 19 -3 0 -8 -5 -11 -10z"/>
<path d="M5390 3539 c0 -5 5 -7 10 -4 6 3 10 8 10 11 0 2 -4 4 -10 4 -5 0 -10
-5 -10 -11z"/>
<path d="M5446 3538 c3 -5 10 -6 15 -3 13 9 11 12 -6 12 -8 0 -12 -4 -9 -9z"/>
<path d="M5281 3496 c-9 -11 -9 -16 1 -22 7 -4 10 -4 6 1 -4 4 -3 14 3 22 6 7
9 13 6 13 -2 0 -10 -6 -16 -14z"/>
<path d="M5319 3508 c-5 -18 -6 -38 -1 -34 7 8 12 36 6 36 -2 0 -4 -1 -5 -2z"/>
<path d="M5211 3447 c-8 -10 -7 -14 2 -14 8 0 14 6 14 14 0 7 -1 13 -2 13 -2
0 -8 -6 -14 -13z"/>
<path d="M5256 3447 c3 -10 9 -15 12 -12 3 3 0 11 -7 18 -10 9 -11 8 -5 -6z"/>
<path d="M5306 3442 c-3 -5 1 -9 9 -9 8 0 12 4 9 9 -3 4 -7 8 -9 8 -2 0 -6 -4
-9 -8z"/>
<path d="M1239 3193 c-13 -16 -12 -17 4 -4 9 7 17 15 17 17 0 8 -8 3 -21 -13z"/>
<path d="M1335 3060 c3 -5 8 -10 11 -10 2 0 4 5 4 10 0 6 -5 10 -11 10 -5 0
-7 -4 -4 -10z"/>
<path d="M1373 2955 c0 -8 4 -12 9 -9 5 3 6 10 3 15 -9 13 -12 11 -12 -6z"/>
<path d="M1456 2767 c3 -10 9 -15 12 -12 3 3 0 11 -7 18 -10 9 -11 8 -5 -6z"/>
<path d="M1495 2740 c3 -5 8 -10 11 -10 2 0 4 5 4 10 0 6 -5 10 -11 10 -5 0
-7 -4 -4 -10z"/>
<path d="M1540 2686 c0 -2 8 -10 18 -17 15 -13 16 -12 3 4 -13 16 -21 21 -21
13z"/>
<path d="M1800 2300 c-9 -6 -10 -10 -3 -10 6 0 15 5 18 10 8 12 4 12 -15 0z"/>
<path d="M1875 2201 c-3 -5 -2 -12 3 -15 5 -3 9 1 9 9 0 17 -3 19 -12 6z"/>
<path d="M5230 2136 c0 -2 8 -10 18 -17 15 -13 16 -12 3 4 -13 16 -21 21 -21
13z"/>
<path d="M1895 2120 c-3 -5 -1 -10 4 -10 6 0 11 5 11 10 0 6 -2 10 -4 10 -3 0
-8 -4 -11 -10z"/>
<path d="M1930 2121 c0 -6 4 -12 8 -15 5 -3 9 1 9 9 0 8 -4 15 -9 15 -4 0 -8
-4 -8 -9z"/>
<path d="M4020 2106 c0 -2 8 -10 18 -17 15 -13 16 -12 3 4 -13 16 -21 21 -21
13z"/>
<path d="M1934 2076 c1 -8 5 -18 8 -22 4 -3 5 1 4 10 -1 8 -5 18 -8 22 -4 3
-5 -1 -4 -10z"/>
<path d="M3951 2067 c-13 -21 -12 -21 5 -5 10 10 16 20 13 22 -3 3 -11 -5 -18
-17z"/>
<path d="M5019 2073 c-13 -16 -12 -17 4 -4 9 7 17 15 17 17 0 8 -8 3 -21 -13z"/>
<path d="M5066 2058 c3 -4 9 -8 15 -8 5 0 9 4 9 8 0 5 -7 9 -15 9 -8 0 -12 -4
-9 -9z"/>
<path d="M5194 2062 c4 -3 14 -7 22 -8 9 -1 13 0 10 4 -4 3 -14 7 -22 8 -9 1
-13 0 -10 -4z"/>
<path d="M4975 2049 c-4 -6 -13 -8 -21 -5 -7 3 -16 2 -18 -3 -3 -4 8 -7 23 -7
16 0 28 5 28 13 0 16 -4 16 -12 2z"/>
<path d="M1915 2029 c-4 -6 -5 -12 -2 -15 2 -3 7 2 10 11 7 17 1 20 -8 4z"/>
<path d="M1975 2020 c-3 -5 -1 -10 4 -10 6 0 11 5 11 10 0 6 -2 10 -4 10 -3 0
-8 -4 -11 -10z"/>
<path d="M3825 2020 c-3 -6 1 -7 9 -4 18 7 21 14 7 14 -6 0 -13 -4 -16 -10z"/>
<path d="M3860 2026 c0 -2 8 -10 18 -17 15 -13 16 -12 3 4 -13 16 -21 21 -21
13z"/>
<path d="M3995 2020 c-3 -5 -1 -10 4 -10 6 0 11 5 11 10 0 6 -2 10 -4 10 -3 0
-8 -4 -11 -10z"/>
<path d="M3799 2015 c-1 -3 -2 -8 -3 -12 -1 -5 -5 -15 -10 -23 -7 -12 -6 -13
4 -3 13 12 23 43 14 43 -2 0 -5 -2 -5 -5z"/>
<path d="M4056 2007 c3 -10 9 -15 12 -12 3 3 0 11 -7 18 -10 9 -11 8 -5 -6z"/>
<path d="M4894 2009 c-3 -6 -2 -15 3 -20 5 -5 9 -1 9 11 0 23 -2 24 -12 9z"/>
<path d="M3930 1999 c0 -5 5 -7 10 -4 6 3 10 8 10 11 0 2 -4 4 -10 4 -5 0 -10
-5 -10 -11z"/>
<path d="M5013 1985 c0 -8 4 -12 9 -9 5 3 6 10 3 15 -9 13 -12 11 -12 -6z"/>
<path d="M4786 1982 c-2 -4 4 -8 14 -8 10 0 16 4 14 8 -3 4 -9 8 -14 8 -5 0
-11 -4 -14 -8z"/>
<path d="M3729 1963 c-13 -16 -12 -17 4 -4 16 13 21 21 13 21 -2 0 -10 -8 -17
-17z"/>
<path d="M3796 1953 c-6 -14 -5 -15 5 -6 7 7 10 15 7 18 -3 3 -9 -2 -12 -12z"/>
<path d="M3820 1966 c0 -2 8 -10 18 -17 15 -13 16 -12 3 4 -13 16 -21 21 -21
13z"/>
<path d="M4937 1955 c-4 -8 -3 -16 1 -19 4 -3 9 4 9 15 2 23 -3 25 -10 4z"/>
<path d="M4709 1943 c-13 -16 -12 -17 4 -4 16 13 21 21 13 21 -2 0 -10 -8 -17
-17z"/>
<path d="M2016 1938 c3 -4 11 -5 19 -1 21 7 19 12 -4 10 -11 0 -18 -5 -15 -9z"/>
<path d="M4734 1929 c-3 -6 -2 -15 3 -20 5 -5 9 -1 9 11 0 23 -2 24 -12 9z"/>
<path d="M4656 1922 c-3 -4 4 -9 15 -9 23 -2 25 3 4 10 -8 4 -16 3 -19 -1z"/>
<path d="M4684 1878 c-4 -7 -3 -8 5 -4 6 4 20 2 29 -6 15 -12 16 -11 3 5 -16
20 -27 22 -37 5z"/>
<path d="M2110 1866 c0 -2 7 -7 16 -10 8 -3 12 -2 9 4 -6 10 -25 14 -25 6z"/>
<path d="M4526 1841 c-3 -4 6 -7 19 -7 14 0 22 2 19 5 -8 8 -34 10 -38 2z"/>
<path d="M2110 1819 c0 -5 5 -7 10 -4 6 3 10 8 10 11 0 2 -4 4 -10 4 -5 0 -10
-5 -10 -11z"/>
<path d="M4589 1803 c-13 -16 -12 -17 4 -4 9 7 17 15 17 17 0 8 -8 3 -21 -13z"/>
<path d="M2070 1801 c0 -6 4 -13 10 -16 6 -3 7 1 4 9 -7 18 -14 21 -14 7z"/>
<path d="M4364 1802 c4 -3 14 -7 22 -8 9 -1 13 0 10 4 -4 3 -14 7 -22 8 -9 1
-13 0 -10 -4z"/>
<path d="M4293 1767 c0 -8 6 -14 14 -14 9 0 10 4 2 14 -6 7 -12 13 -14 13 -1
0 -2 -6 -2 -13z"/>
<path d="M4334 1769 c-3 -6 -2 -15 3 -20 5 -5 9 -1 9 11 0 23 -2 24 -12 9z"/>
<path d="M4471 1767 c-8 -10 -7 -14 2 -14 8 0 14 6 14 14 0 7 -1 13 -2 13 -2
0 -8 -6 -14 -13z"/>
<path d="M4150 1726 c0 -2 7 -7 16 -10 8 -3 12 -2 9 4 -6 10 -25 14 -25 6z"/>
<path d="M4326 1698 c3 -5 10 -6 15 -3 13 9 11 12 -6 12 -8 0 -12 -4 -9 -9z"/>
<path d="M2355 1561 c-3 -5 -2 -12 3 -15 5 -3 9 1 9 9 0 17 -3 19 -12 6z"/>
<path d="M3706 1522 c-2 -4 4 -8 14 -8 10 0 16 4 14 8 -3 4 -9 8 -14 8 -5 0
-11 -4 -14 -8z"/>
<path d="M3585 1500 c-3 -6 1 -7 9 -4 18 7 21 14 7 14 -6 0 -13 -4 -16 -10z"/>
<path d="M3693 1485 c0 -8 4 -12 9 -9 5 3 6 10 3 15 -9 13 -12 11 -12 -6z"/>
<path d="M2376 1462 c-3 -5 1 -9 9 -9 8 0 12 4 9 9 -3 4 -7 8 -9 8 -2 0 -6 -4
-9 -8z"/>
<path d="M2436 1447 c3 -10 9 -15 12 -12 3 3 0 11 -7 18 -10 9 -11 8 -5 -6z"/>
<path d="M3473 1445 c0 -8 4 -12 9 -9 5 3 6 10 3 15 -9 13 -12 11 -12 -6z"/>
<path d="M3589 1443 c-13 -16 -12 -17 4 -4 16 13 21 21 13 21 -2 0 -10 -8 -17
-17z"/>
<path d="M3499 1433 c-13 -16 -12 -17 4 -4 16 13 21 21 13 21 -2 0 -10 -8 -17
-17z"/>
<path d="M3373 1405 c0 -8 4 -15 9 -15 4 0 8 4 8 9 0 6 -4 12 -8 15 -5 3 -9
-1 -9 -9z"/>
<path d="M2455 1380 c3 -5 8 -10 11 -10 2 0 4 5 4 10 0 6 -5 10 -11 10 -5 0
-7 -4 -4 -10z"/>
<path d="M3255 1361 c-3 -5 -2 -12 3 -15 5 -3 9 1 9 9 0 17 -3 19 -12 6z"/>
<path d="M3390 1360 c0 -5 5 -10 11 -10 5 0 7 5 4 10 -3 6 -8 10 -11 10 -2 0
-4 -4 -4 -10z"/>
<path d="M3190 1321 c0 -6 4 -13 10 -16 6 -3 7 1 4 9 -7 18 -14 21 -14 7z"/>
<path d="M3230 1318 c0 -4 4 -8 9 -8 6 0 12 4 15 8 3 5 -1 9 -9 9 -8 0 -15 -4
-15 -9z"/>
<path d="M3470 1321 c0 -6 4 -13 10 -16 6 -3 7 1 4 9 -7 18 -14 21 -14 7z"/>
<path d="M3335 1300 c3 -5 8 -10 11 -10 2 0 4 5 4 10 0 6 -5 10 -11 10 -5 0
-7 -4 -4 -10z"/>
<path d="M3113 1287 c0 -8 6 -14 14 -14 9 0 10 4 2 14 -6 7 -12 13 -14 13 -1
0 -2 -6 -2 -13z"/>
<path d="M3056 1282 c-3 -4 4 -9 15 -9 23 -2 25 3 4 10 -8 4 -16 3 -19 -1z"/>
<path d="M3173 1275 c0 -8 4 -12 9 -9 4 3 8 9 8 15 0 5 -4 9 -8 9 -5 0 -9 -7
-9 -15z"/>
<path d="M3230 1279 c0 -5 5 -7 10 -4 6 3 10 8 10 11 0 2 -4 4 -10 4 -5 0 -10
-5 -10 -11z"/>
<path d="M2530 1259 c0 -5 5 -7 10 -4 6 3 10 8 10 11 0 2 -4 4 -10 4 -5 0 -10
-5 -10 -11z"/>
<path d="M3126 1222 c-3 -5 1 -9 9 -9 8 0 12 4 9 9 -3 4 -7 8 -9 8 -2 0 -6 -4
-9 -8z"/>
<path d="M3171 1227 c2 -1 13 -9 24 -17 19 -14 19 -14 6 3 -7 9 -18 17 -24 17
-6 0 -8 -1 -6 -3z"/>
<path d="M2895 1209 c-4 -6 -14 -8 -24 -4 -13 5 -14 4 -3 -6 10 -11 15 -10 29
4 10 9 14 17 11 17 -4 0 -10 -5 -13 -11z"/>
<path d="M2950 1205 c0 -7 30 -13 34 -7 3 4 -4 9 -15 9 -10 1 -19 0 -19 -2z"/>
<path d="M2593 1185 c0 -8 4 -12 9 -9 5 3 6 10 3 15 -9 13 -12 11 -12 -6z"/>
<path d="M2791 1167 c-8 -10 -7 -14 2 -14 8 0 14 6 14 14 0 7 -1 13 -2 13 -2
0 -8 -6 -14 -13z"/>
<path d="M2770 1136 c0 -2 8 -10 18 -17 15 -13 16 -12 3 4 -13 16 -21 21 -21
13z"/>
<path d="M2697 1115 c-4 -8 -3 -16 1 -19 4 -3 9 4 9 15 2 23 -3 25 -10 4z"/>
<path d="M2815 1100 c3 -5 8 -10 11 -10 2 0 4 5 4 10 0 6 -5 10 -11 10 -5 0
-7 -4 -4 -10z"/>
<path d="M2756 1087 c3 -10 9 -15 12 -12 3 3 0 11 -7 18 -10 9 -11 8 -5 -6z"/>
<path d="M2790 1081 c0 -6 4 -13 10 -16 6 -3 7 1 4 9 -7 18 -14 21 -14 7z"/>
<path d="M2736 1061 c-3 -5 2 -15 12 -22 15 -12 16 -12 5 2 -7 9 -10 19 -6 22
3 4 4 7 0 7 -3 0 -8 -4 -11 -9z"/>
</g>
</svg>
