<svg width="180" height="180" viewBox="0 0 180 180" fill="none" xmlns="http://www.w3.org/2000/svg">
<rect x="0.5" y="0.5" width="179" height="179" rx="89.5" fill="#F95356" stroke="white"/>
<g filter="url(#filter0_d)">
<path d="M171 89.64C171 134.375 134.735 170.64 90 170.64C45.2649 170.64 9 134.375 9 89.64C9 44.905 45.2649 8.64001 90 8.64001C134.735 8.64001 171 44.905 171 89.64Z" fill="#F95356"/>
<path d="M166 89.64C166 131.614 131.974 165.64 90 165.64C48.0264 165.64 14 131.614 14 89.64C14 47.6664 48.0264 13.64 90 13.64C131.974 13.64 166 47.6664 166 89.64Z" stroke="white" stroke-width="10"/>
</g>
<g clip-path="url(#clip0)">
<rect width="93.6" height="93.6" transform="translate(28.8762 65.5794) rotate(-22)" fill="#F95356"/>
<g filter="url(#filter1_d)">
<path d="M92.5262 58.0847C92.6884 59.7354 92.9123 61.6639 94.2623 65.0051L111.808 72.453L114.499 71.366L119.407 83.5158L111.7 88.8004L114.022 109.415L105.951 112.676L103.321 106.167L83.795 114.056L86.4247 120.565L78.3104 123.844C71.6062 115.246 60.6484 100.492 58.0888 94.1571C55.196 86.9974 58.6872 78.7727 65.8469 75.8799L87.1091 67.2895C87.5418 64.2376 89.1285 60.6689 92.5262 58.0847ZM93.1316 49.7136C83.7155 53.5179 81.225 62.0955 81.225 62.0955L63.2172 69.3711C52.5861 73.6664 47.1444 85.8086 51.5799 96.7868C55.6648 106.897 76.0368 132.333 76.0368 132.333L95.5633 124.444L92.9336 117.935L99.4424 115.306L102.072 121.815L121.599 113.925L119.133 92.2074L128.02 86.0932L118.378 62.2274L111.869 64.8572L99.6841 59.6851C99.053 58.1229 100.136 54.556 99.224 52.2997C98.2598 49.9131 95.5182 48.7494 93.1316 49.7136ZM89.7563 78.8388L72.3995 85.8514L69.7697 79.3426L87.1266 72.33L89.7563 78.8388ZM102.149 81.403C100.37 82.1218 98.2988 81.2425 97.58 79.4635C96.8612 77.6844 97.7405 75.613 99.5196 74.8942C101.299 74.1754 103.37 75.0546 104.089 76.8337C104.808 78.6128 103.928 80.6842 102.149 81.403Z" fill="white"/>
</g>
</g>
<defs>
<filter id="filter0_d" x="5" y="8.64001" width="170" height="170" filterUnits="userSpaceOnUse" color-interpolation-filters="sRGB">
<feFlood flood-opacity="0" result="BackgroundImageFix"/>
<feColorMatrix in="SourceAlpha" type="matrix" values="0 0 0 0 0 0 0 0 0 0 0 0 0 0 0 0 0 0 127 0" result="hardAlpha"/>
<feOffset dy="4"/>
<feGaussianBlur stdDeviation="2"/>
<feComposite in2="hardAlpha" operator="out"/>
<feColorMatrix type="matrix" values="0 0 0 0 0.203922 0 0 0 0 0.227451 0 0 0 0 0.25098 0 0 0 0.25 0"/>
<feBlend mode="normal" in2="BackgroundImageFix" result="effect1_dropShadow"/>
<feBlend mode="normal" in="SourceGraphic" in2="effect1_dropShadow" result="shape"/>
</filter>
<filter id="filter1_d" x="37.061" y="42.701" width="103.725" height="101.139" filterUnits="userSpaceOnUse" color-interpolation-filters="sRGB">
<feFlood flood-opacity="0" result="BackgroundImageFix"/>
<feColorMatrix in="SourceAlpha" type="matrix" values="0 0 0 0 0 0 0 0 0 0 0 0 0 0 0 0 0 0 127 0" result="hardAlpha"/>
<feOffset dy="4"/>
<feGaussianBlur stdDeviation="2"/>
<feComposite in2="hardAlpha" operator="out"/>
<feColorMatrix type="matrix" values="0 0 0 0 0.203922 0 0 0 0 0.227451 0 0 0 0 0.25098 0 0 0 0.25 0"/>
<feBlend mode="normal" in2="BackgroundImageFix" result="effect1_dropShadow"/>
<feBlend mode="normal" in="SourceGraphic" in2="effect1_dropShadow" result="shape"/>
</filter>
<clipPath id="clip0">
<rect width="93.6" height="93.6" fill="white" transform="translate(28.8762 65.5794) rotate(-22)"/>
</clipPath>
</defs>
</svg>
